<svg width="19" height="22" fill="none" xmlns="http://www.w3.org/2000/svg"><g clip-path="url(#clip0)"><path d="M5.429 6.277V4.58a.51.51 0 01.508-.509h1.697a.51.51 0 01.509.51v1.696a.51.51 0 01-.51.509H5.938a.51.51 0 01-.508-.51zm5.937.509h1.697a.51.51 0 00.508-.51V4.58a.51.51 0 00-.508-.509h-1.697a.51.51 0 00-.509.51v1.696c0 .28.23.509.51.509zm-5.428 4.071h1.696a.51.51 0 00.509-.509V8.652a.51.51 0 00-.51-.51H5.938a.51.51 0 00-.508.51v1.696c0 .28.229.51.508.51zm5.428 0h1.697a.51.51 0 00.508-.509V8.652a.51.51 0 00-.508-.51h-1.697a.51.51 0 00-.509.51v1.696c0 .28.23.51.51.51zM8.143 14.42v-1.697a.51.51 0 00-.51-.509H5.938a.51.51 0 00-.508.51v1.696c0 .28.229.509.508.509h1.697a.51.51 0 00.509-.51zm3.223.509h1.697a.51.51 0 00.508-.51v-1.696a.51.51 0 00-.508-.509h-1.697a.51.51 0 00-.509.51v1.696c0 .28.23.509.51.509zM19 20.187v1.527H0v-1.526a.51.51 0 01.509-.51h.827V1.019C1.336.454 1.79 0 2.354 0h14.292c.564 0 1.018.454 1.018 1.018v18.66h.827a.51.51 0 01.509.51zm-15.628-.55h4.77v-2.842a.51.51 0 01.51-.51h1.696a.51.51 0 01.51.51v2.841h4.77V2.078L3.393 2.036l-.021 17.6z" fill="#58A193"/></g><defs><clipPath id="clip0"><path fill="#fff" d="M0 0h19v21.714H0z"/></clipPath></defs></svg>