<svg width="106" height="264" fill="none" xmlns="http://www.w3.org/2000/svg"><g clip-path="url(#clip0)"><path d="M22.766 107.16s-3.19-5.816-8.7-3.353c-5.51 2.464-6.09 6.706-1.016 9.854 5.148 3.148 12.979-2.258 9.716-6.501z" fill="#6F4325"/><path d="M47.272 256.473h7.54v-11.907H43.647c-3.19 8.554-15.226 8.964-17.401 9.443-2.175.479 0 4.859 0 4.859l15.37-.89 5.438-5.406.218 3.901zm27.188-12.181v11.633s3.989-.137 4.569.89c.435.753 4.495 6.638 7.685 7.048 2.393.342 7.758.205 6.308-3.558-1.45-3.764-10.223-15.602-10.223-15.602l-8.338-.411z" fill="#2A3236"/><path d="M42.704 125.362s-6.38 11.017-6.67 24.703c-.363 17.176 2.972 41.126 3.843 44.069.29.889.87 6.364.724 13.754-.072 3.49-1.377 36.541-2.102 38.868 0 0 8.483 3.011 18.706 0 0 0 .072-34.831 0-36.815-.218-8.964-2.538-16.355-2.61-18.955-.145-3.148-.58-44.411.435-45.779 0 0 10.585 48.516 11.455 51.322.58 1.847 1.74 11.017 1.958 15.396.652 11.428 2.102 36.131 2.102 36.131s15.081 1.574 19.504-1.574c0 0-3.915-21.076-5.583-30.656-.942-5.269-4.93-27.372-4.93-29.151 0-.89-.725-20.939-2.465-37.568-1.233-11.838-4.785-21.213-8.266-23.813.073.068-22.403 1.095-26.1.068z" fill="url(#paint0_linear)"/><path opacity=".5" d="M77.216 150.887c-.943.479-8.12 2.258-10.44 2.258-3.626.068-6.38-.137-10.079-1.095-.87-4.106-1.45-6.775-1.45-6.775-.217.343-.435 2.943-.507 6.843-1.668.137-5.438 1.574-9.57 1.711-3.336.068-5.873-.342-9.064-1.232v-2.532c.29-13.685 6.67-24.703 6.67-24.703 3.77.958 26.247 0 26.247 0 3.48 2.601 7.033 11.976 8.265 23.814.073.547.073 1.095.145 1.642-.145 0-.145.069-.217.069z" fill="url(#paint1_linear)"/><path d="M64.238 42.974c-5.003 2.668-11.093 7.595-16.894 7.253-.217 2.806-.725 7.185-1.595 8.827-1.305 2.532-4.277 4.243-4.277 4.243s5.872 9.101 14.283 6.159c8.41-2.943 11.31-7.049 11.89-7.596.435-.479-4.06-11.017-3.407-18.886z" fill="#FFB481"/><path d="M40.747 63.844l6.307-3.01 7.758-.343 12.326-1.026 6.38 6.09-20.3 35.036c-.073 0-14.719-20.323-12.471-36.747z" fill="#E6D7B6"/><path opacity=".5" d="M50.027 62.886l2.828 4.243-5.003 16.081 5.003 9.99 5.003-10.606-3.263-15.26 4.133-5.68-3.77-3.558-4.93 4.79z" fill="#CCCDCE"/><path d="M49.23 62.613l2.755 4.242-4.93 16.081 4.93 9.99 4.568-9.442-2.828-16.355 4.133-5.68-3.77-3.626-4.858 4.79z" fill="#32333A"/><path d="M65.108 52.006l-11.02 5.817 4.785 8.348 8.773-6.706-2.538-7.459zM49.012 65.897l5.075-8.074-7.685-.958-4.06 5.816 6.67 3.216z" fill="#F8F8F6"/><path d="M57.568 16.08c-5.438-.683-11.891 1.985-14.284 6.57-.942 1.848-1.885 3.969-2.32 5.954-1.087 5.2-1.522 8.006-2.392 11.427-.798 3.285 1.812 13.96 5.002 14.507 3.19.48 17.111-1.779 18.199-3.695 1.087-1.916 1.812-8.143 1.812-8.143s5.438 1.3 7.613-3.764c2.175-5.063-.87-7.732-6.163-3.969 0 0 5.873-11.359.725-15.67-2.175-1.848-5.22-2.874-8.193-3.216z" fill="#FFC39A"/><path d="M73.373 15.465c-5.655-6.638-32.046-1.3-30.379 7.8 0 0 3.118 1.712 6.816 1.643 2.537-.068 10.948-2.737 14.283-.547 1.377.89 1.233 3.08 1.087 4.448-.217 2.531-.87 4.995-1.667 7.39a60.61 60.61 0 01-3.263 8.485c-.797-1.026-2.03-2.395-3.987-3.216-2.03-.89-4.06.137-8.99.547-1.45.137-3.336-.068-5.294-.752-1.232-.41-3.552.342-3.552.342-.653 3.695 1.812 15.739 4.93 16.218 3.19.479 17.11-3.764 18.198-5.68.58-1.095 1.668-4.106 2.465-6.57 1.886.343 7.903 1.096 9.28-2.463 1.523-4.242 5.656-21.007.073-27.645zm-8.265 26.687c-.29-1.3-.58-1.574-.725-2.463.435-1.369.943-2.737 1.45-3.832 1.088-2.258 2.175-2.258 3.625-2.121 3.263.41 1.595 9.443-4.35 8.416z" fill="#76432C"/><path opacity=".32" d="M43.574 53.58c-1.232-.205-3.77-3.695-3.77-3.695.943 3.558 2.32 6.706 3.915 6.98 3.118.479 16.386-3.627 17.474-5.475.507-.958 1.377-3.49 2.175-5.68-3.263 4.996-13.558 8.965-19.794 7.87z" fill="#754F39"/><path opacity=".75" d="M46.982 26.14c-.58-.205-3.335-.069-5.003.753-.507.205-.797.616-1.015.958 0 .205 0 .342-.072.547 0 .342-.073.684-.145.958h.145c1.595 0 5.727-.137 5.872-.479.218-.41 1.233-2.395.218-2.737zm14.138 4.448s-3.988-1.232-4.858-1.232c-.797 0-4.858.274-4.93 0-.072-.274-.653-2.874.797-2.942 1.45-.069 5.656.342 6.38.82.798.48 4.496 3.422 2.61 3.354z" fill="#FFD6BD"/><path d="M40.82 27.988c-.146.41-.29.89.29.89 1.594 0 5.727-.138 5.872-.48.145-.41 1.233-2.395.145-2.737-.58-.205-3.335-.069-5.003.753-.797.342-1.087 1.026-1.305 1.573zm20.445 2.052s-3.988-1.231-4.858-1.231c-.797 0-4.857.273-4.93 0-.072-.274-.652-2.874.798-2.943 1.45-.068 5.655.342 6.38.821.797.48 4.495 3.49 2.61 3.353z" fill="#733F27"/><path d="M42.487 42.837s1.015 6.09 5.728 5.816c4.712-.342 7.685-6.227 7.685-6.227s-8.265 3.353-13.413.41z" fill="#E05C4A"/><path d="M54.74 42.837c-1.305 1.779-3.625 4.242-6.598 4.38-3.117.204-4.568-2.396-5.22-4.175 3.988 1.916 9.498.547 11.818-.205z" fill="#FFFEFF"/><path d="M25.159 110.239l-7.613-5.2-7.686 3.763s3.698 4.38 9.57 6.091c5.874 1.779 7.324-3.422 5.729-4.654z" fill="#F6AE77"/><path d="M31.611 67.471l-1.015 1.916c-1.813 3.422-3.19 7.117-3.915 10.88a30.162 30.162 0 00-.435 3.217l.362 24.018-7.105-2.805s5.148 3.421.435 6.979c-4.568 3.422-9.788 1.78-10.295-3.421 0 0-.653 4.79 2.102 6.295 4.713 2.601 26.247 10.539 27.697 10.539 1.45 0 2.9-2.122 1.015-9.717-1.886-7.596 1.16-18.408-8.846-47.9z" fill="#9B673C"/><path opacity=".25" d="M37.34 91.01c.29.959.652 1.917 1.014 2.875-.725-4.927-2.03-10.949-4.133-18.27-.217 1.368-.217 2.736.073 4.037a101.25 101.25 0 003.045 11.359zm2.247 28.331c-7.25-.343-13.703-3.764-19.069-8.28-.217.205-.435.342-.652.547-4.568 3.422-9.788 1.779-10.296-3.421 0 0-.652 4.79 2.103 6.295 4.713 2.6 26.246 10.538 27.696 10.538 1.16 0 2.32-1.368 1.74-5.816a9.62 9.62 0 01-1.522.137z" fill="#9B6E4D"/><path opacity=".25" d="M41.327 120.778c-.073-2.464-.87-4.79-1.233-7.186-1.305-.342-2.465-.958-3.335-1.916-1.015-1.163-1.523-2.737-2.103-4.037a105.722 105.722 0 01-3.48-9.443c-.942 2.463-2.03 4.927-3.407 7.048 1.667 5.406 4.567 11.975 1.885 16.628 0 0 5.727 2.122 8.628 2.943.725.205 1.45.41 2.03-.137 1.087-.958 1.015-2.737 1.015-3.9z" fill="#8F5C37"/><path d="M4.277 93.953c2.176-.752 4.206-1.642 5.946-2.942 1.957-1.437 4.857-4.037 5.365-6.432.145-.616.218-1.3.363-1.916-.798-.753-1.523-1.506-2.03-2.19 0 0-1.088-.274-2.973.479-.145.068-.87-.958-1.958-2.19 0 0-9.86 1.369-8.918 12.796 0 0 1.523.89 4.06 2.395 0 .069.073.069.146 0z" fill="url(#paint2_linear)"/><path d="M13.558 84.51c-.87-.821-1.74-1.574-2.538-2.463-.435.958-1.087 1.71-2.03 2.326-.29.41-.58.821-.942 1.095-.508.41-1.088.753-1.595 1.163.652-.41.072 0-.073.206-.58.615-1.087 1.437-1.885 1.779.58.753 3.988 2.874 4.713 3.558.725-.342.435-.616 1.087-1.026 1.668-1.164 3.916-3.216 4.93-5.2-.652-.548-1.16-.959-1.667-1.438z" fill="url(#paint3_linear)"/><path d="M13.92 80.541c1.306 4.79-3.552 12.933-12.688 11.36-.435-.069-.797-.137-1.16-.274 0 0 36.252 21.144 44.445 29.561l-2.683-17.928c.073 0-21.968-15.67-27.914-22.719z" fill="#F8ECD1"/><path d="M9.353 90.395c3.48 1.505 6.742 3.627 9.86 5.748 2.175 1.506 4.133 3.216 6.308 4.722 2.102 1.437 4.422 2.6 6.453 4.106 2.175 1.642 3.77 3.626 5.365 5.748.507.684 1.74 2.668 2.392 2.874 1.668.547 3.046 1.437 4.133 2.6L41.98 103.26S20.011 87.658 13.993 80.541c.797 3.08-.943 7.46-4.64 9.854z" fill="#F8ECD1"/><path d="M41.907 103.26S19.938 87.658 13.92 80.541a8.19 8.19 0 01.218 1.916c2.755 4.79 3.77 9.101 2.393 11.907.942.616 1.812 1.232 2.682 1.78 2.175 1.505 4.133 3.215 6.308 4.721 2.103 1.437 4.423 2.6 6.453 4.106 2.175 1.642 3.77 3.626 5.365 5.748.508.684 1.74 2.668 2.393 2.874 1.667.547 3.045 1.437 4.132 2.6l-1.957-12.933z" fill="#F8ECD1"/><path d="M44.372 117.904c-.435-2.532-.58-3.217-1.088-5.68 0 0-12.325-4.995-19.14-9.854a5.177 5.177 0 01-.943-.342c-5.148-2.121-11.383-6.57-13.413-10.196-3.408 1.71-6.236 1.027-6.236 1.027s29.872 17.449 40.965 26.755c.072-.547 0-1.163-.145-1.71z" fill="#F5E4BD"/><path d="M11.093 80.952s-7.758 1.847-6.96 6.98c.434 2.668 10.005-1.574 6.96-6.98z" fill="url(#paint4_linear)"/><path d="M11.6 82.731c-1.667.069-4.06 2.669-5.292 3.558.072.069 2.755.822 2.755 1.027 1.522-1.095 2.827-2.737 2.61-4.653 0 .068-.073.068-.073.068z" fill="url(#paint5_linear)"/><path d="M10.368 83.689c-.363.342-1.305-.068-1.668.342-.58.684-1.087 1.369-1.74 2.053-.145.137-.507.205-.652.274.58.479 1.377 1.026 1.957 1.574 1.305-.753 2.61-1.848 3.118-3.217-.58-.615-1.015-1.026-1.015-1.026z" fill="url(#paint6_linear)"/><path d="M6.235 86.22c1.16.48 3.48-.41 4.133-2.6-.508-.479-3.553.069-4.133 2.6z" fill="url(#paint7_linear)"/><path d="M6.38 75.409c2.248-.274 4.496-.753 6.526-1.642 2.247-.958 5.655-2.943 6.742-5.2.29-.617.508-1.164.798-1.78-.58-.958-1.088-1.78-1.523-2.532 0 0-1.015-.479-3.045-.137-.145 0-.652-1.095-1.377-2.532 0 0-9.933-.684-11.673 10.675 0 0 1.305 1.163 3.407 3.148 0-.069.073-.069.145 0z" fill="url(#paint8_linear)"/><path d="M17.546 68.087c-.726-.958-1.305-1.916-1.886-2.943a5.692 5.692 0 01-2.537 1.848c-.363.342-.725.684-1.16.89-.58.273-1.233.547-1.813.752.725-.273.073.069-.072.137-.653.48-1.45 1.164-2.248 1.3.435.822 3.263 3.627 3.77 4.448.798-.205.58-.479 1.305-.82 1.885-.822 4.568-2.327 6.018-4.107a13.956 13.956 0 01-1.377-1.505z" fill="url(#paint9_linear)"/><path d="M18.85 64.186c.218 4.996-6.452 11.907-15.008 8.486-.362-.137-.797-.274-1.087-.48 0 0 30.524 28.057 36.614 37.979l1.523-18.065c0 .068-17.836-19.708-22.041-27.92z" fill="#F8ECD1"/><path d="M40.602 96.964C36.107 91.49 22.186 74.52 19.213 69.798c-.435.684-.942 1.437-1.595 2.053 3.408 4.448 17.329 21.076 22.911 27.371-.072-.752-.072-1.505.073-2.258z" fill="#FCF6E8"/><path d="M40.022 106.955c.145-2.532.217-3.216.29-5.817 0 0-13.341-9.1-17.981-15.465-2.393-3.216-4.93-6.774-6.018-12.796C11.455 75.888 6.09 74.11 6.09 74.11s25.159 23.129 33.859 34.557c-.073-.548 0-1.164.073-1.711z" fill="#F8ECD1"/><path d="M15.95 64.05s-7.975.205-8.41 5.406c-.145 2.668 10.223.479 8.41-5.406z" fill="url(#paint10_linear)"/><path d="M16.023 65.897c-1.667-.273-4.568 1.78-6.018 2.395.073.069 2.538 1.369 2.465 1.574 1.74-.752 3.336-2.121 3.626-3.969h-.073z" fill="url(#paint11_linear)"/><path d="M14.645 66.582c-.435.273-1.305-.342-1.667 0-.725.547-1.45 1.163-2.175 1.642-.145.068-.58.068-.725.137.435.616 1.087 1.3 1.522 1.916 1.45-.41 2.973-1.3 3.77-2.532-.435-.684-.725-1.163-.725-1.163z" fill="url(#paint12_linear)"/><path d="M10.078 68.224c1.015.753 3.48.274 4.567-1.71-.362-.548-3.48-.617-4.567 1.71z" fill="url(#paint13_linear)"/><path d="M25.666 104.149s.725-.547.652-1.368c-.145-1.164-.942-1.232-.942-1.232s.435-.821.145-1.505c-.508-1.37-1.958-1.164-1.958-1.164.87-.752.145-2.874-1.45-3.08-3.552-.41-8.918-.341-11.02 1.096-.435.342-1.088.273-1.595.41 4.495 2.738 10.005 6.091 15.443 9.649 1.305-.205 1.595-2.19.725-2.806z" fill="#F8ECD1"/><path opacity=".65" d="M44.59 119.683c-.073-.616-.146-1.232-.218-1.779-.435-2.532-.58-3.217-1.088-5.68 0 0-.072 0-.145-.069l-1.305-8.895s-.58-.411-1.668-1.164v-.889s-.072-.069-.144-.069l.145-2.12c.072.067.145.204.217.273-.072-.753-.072-1.506.073-2.258 0-.069-.073-.069-.073-.137l.435-4.722S35.091 85.81 29.363 78.83c-.724 3.011.436 6.433-.652 9.238-3.77 9.58-.725 17.518-1.015 20.666 5.728 3.832 14.356 9.991 16.748 12.454l-.29-1.847c.218.136.363.205.435.342z" fill="#EEE3D7"/><path d="M44.154 62.065l-12.543 5.406s2.393 16.56 2.393 19.503c0 2.805-1.233 11.564 3.843 30.108.362 1.369.435 2.874.072 4.243-1.232 5.474-4.568 19.571-5.293 22.445 0 0 19.794 4.242 21.389-1.711 1.595-5.885-1.74-44.547-2.103-54.812.073.069-5.8-14.438-7.758-25.182z" fill="#9B673C"/><path opacity=".25" d="M41.617 111.266c-2.465-4.927-2.175-10.264-3.045-15.534a58.132 58.132 0 00-4.423-15.054c-.29-.684-.725-1.368-1.088-2.053.435 3.695.87 7.117.87 8.28 0 2.806-1.232 11.565 3.843 30.109.362 1.369.435 2.874.072 4.243-1.232 5.474-4.567 19.57-5.292 22.444 0 0 19.793 4.243 21.388-1.71.725-2.532.435-11.223-.072-21.076-5.075-1.232-9.933-5.064-12.253-9.649z" fill="#9B6E4D"/><path d="M44.154 62.065s-3.19.822-4.35 1.985c-1.16 1.163-2.827 9.1-2.827 9.1l5.365 1.848-2.973 4.38s11.746 19.913 12.906 22.787v-15.26s-7.758-22.924-8.12-24.84z" fill="#87522A"/><path d="M52.638 87.179l-.798-1.71s-.435 5.405-.435 10.537c-.072 4.653-.072 9.649 0 13.276.435 16.765.435 34.898 0 35.172 1.377-.479 2.393-1.232 2.755-2.395 1.523-5.816-1.16-44.41-1.522-54.88z" fill="#7F4C2D"/><path d="M80.479 141.238s-20.736 6.706-24.579 1.369c-3.77-5.406-3.117-24.977-3.48-35.105-.363-10.127.218-20.939.218-20.939s13.848-20.529 14.355-27.03l15.008 4.654s-5.22 9.374-2.465 26.687c0 0-6.525 24.156-6.09 29.288.508 5.2 7.033 21.076 7.033 21.076z" fill="#9B673C"/><path opacity=".25" d="M79.536 90.874c-.58-3.9-.797-7.39-.797-10.401-.653 1.437-1.233-1.095-1.74.41-2.03 5.748-2.683 15.602-3.988 21.419-1.523 6.5-5.148 11.701-11.383 15.054-2.32 1.232-5.655 2.943-8.918 3.558.218 8.896.797 18.271 3.263 21.693 3.77 5.405 24.578-1.369 24.578-1.369s-6.525-15.876-7.033-21.076c-.507-5.132 6.018-29.288 6.018-29.288z" fill="#9B6E4D"/><path d="M15.153 101.754s6.96 4.859 5.873 6.569c-1.088 1.711-4.858 4.038-8.628 3.011-3.045-.821-6.67-9.58-6.598-10.469.145-1.711 3.77-4.174 4.06-4.243.29 0 5.293 5.132 5.293 5.132z" fill="#FFB989"/><path opacity=".75" d="M15.515 102.028a2.59 2.59 0 01-.362-.274S10.15 96.622 9.86 96.69c-.29.069-3.843 2.464-4.06 4.243-.073.821 3.553 9.649 6.598 10.47 1.667.479 3.335.205 4.785-.274-2.61-2.327-3.19-6.295-1.668-9.101z" fill="#FFDFCC"/><path d="M67.065 59.602s5.51 1.232 6.816 2.121c0 0-2.973 8.828-3.408 9.58-.435.753-7.105 2.6-7.105 2.6l3.697 5.133s-12.833 19.023-14.718 23.129l.145-15.534c.87-2.874 14.066-26.482 14.573-27.03z" fill="#87522A"/><path d="M73.518 135.695s-9.643-6.569-6.815-14.849c.072.068 13.413 1.916 6.815 14.849z" fill="#6F4325"/><path d="M33.642 113.045s10.005 23.882 10.44 28.946c0 0 12.398 2.121 25.594-4.517 0 0-8.773-21.213-8.773-27.782 0 0-15.008 4.106-27.261 3.353z" fill="#D6D6D6"/><path d="M33.352 113.798s10.005 23.882 10.44 28.945c0 0 12.398 2.122 25.594-4.516 0 0-8.773-21.213-8.773-27.782-.073-.069-15.08 4.037-27.261 3.353z" fill="#32333A"/><path opacity=".32" d="M62.933 120.846c-2.465-.137-4.785.411-7.25.547-.363 0-5.655 3.627-6.526 4.448-1.812 2.601 1.958 3.216 1.958 3.216-.073.274-.725.753-1.16 1.643-1.015 2.121 2.61 2.532 2.61 2.532-.072 0-.797 2.532 3.553 1.916 0 0 .507 1.368 1.74 1.368 2.538.342 9.86-2.258 9.933-2.395-1.378-3.284-3.263-8.348-4.858-13.275z" fill="#545454"/><path opacity=".45" d="M65.035 130.768c-1.595.069-3.19-.137-4.785-.273 2.465.205-1.16.068-1.377.068-.725 0-1.668 1.3-2.393 1.232-3.915-.342-5.438.273-8.99-1.437-2.9-1.3-7.758-6.159-10.078-8.622 2.755 6.911 6.742 17.244 7.032 20.255 0 0 11.528 1.984 23.71-4.175 0 0-1.233-3.01-2.756-6.979-.145-.137-.218-.137-.363-.069z" fill="#484848"/><path d="M41.907 114.14a105.06 105.06 0 00-1.595-3.901c-.218-.479.145-1.026.653-1.094 2.32-.206 7.25-.753 9.932-1.437.436-.137.943.136 1.016.615.217 1.027.58 2.738 1.015 3.832.145.48-.145.959-.653 1.027-.435.068-.87-.137-1.015-.547l-.653-2.396c-.145-.41-.507-.615-.942-.547-1.378.205-4.35.616-6.09.753-.508.068-.87.479-.725.958l.58 2.19c.145.41-.218.889-.653.958-.362.205-.725 0-.87-.411z" fill="#32333A"/><path d="M57.495 105.039c0 .889-.58 1.642-1.378 1.642-.797 0-1.377-.753-1.377-1.642 0-.89.58-1.642 1.377-1.642.798 0 1.378.752 1.378 1.642z" fill="#956643"/><path d="M56.987 105.039c0 .616-.435 1.095-.87 1.095-.507 0-.87-.479-.87-1.095s.435-1.095.87-1.095.87.479.87 1.095z" fill="#8D5A34"/><path opacity=".75" d="M66.775 36.13c.435-.615.943-1.436 1.668-1.573.798-.137 1.45-.137 1.668.479.362.821.29 2.053-.435 3.695-1.596 3.9-3.843 2.327-4.713 1.78.217-.138.58-2.738 1.813-4.38z" fill="#F8D6BD"/><path d="M69.748 36.13s-1.378-1.368-1.958-.478c-.58.89-2.32 3.763-1.45 4.31.798.548 1.885.548 1.595-1.71-.362-2.258.725-2.6 1.813-2.121z" fill="#EC996B"/><path d="M74.46 124.131s-8.047-2.943-11.31-2.464c-3.335.479-5.51-.273-6.743.616-1.74 1.232-6.815 4.174-6.525 4.516.29.343.943 3.217 7.395-1.163 1.596-1.095 5.293-.479 5.293-.479s-1.957-.342-3.77.479-8.048 5.543-8.048 5.885c0 .342 1.088 2.6 7.685-2.19 0 0 2.176-1.368 4.64-1.368 0 0-4.494 1.71-4.712 1.847-.218.137-4.64 3.148-4.93 3.627-.29.479 1.595 2.6 7.613-1.711 0 0 2.32-1.026 3.625-1.231 0 0-3.045 1.094-3.625 1.437-.58.342-3.48 2.189-3.48 2.326 0 .685 1.305 1.848 5.22-.205s4.277-1.779 7.032-1.779c2.756 0 3.046-.616 4.64.342 0-.069 4.133-3.764 0-8.485z" fill="#FFC39A"/><path opacity=".35" d="M53.435 133.437c.217-.41 3.262-2.463 4.422-3.285.145 1.027.725 1.985 1.813 2.464-4.93 3.079-6.453 1.3-6.235.821zm7.54-1.369c.072.89.435 1.711 1.16 2.327-3.408 1.574-4.568.548-4.568-.068.073-.206 2.61-1.78 3.408-2.259zm-5.002-4.653c.072 1.027.507 2.053 1.522 2.669-5.728 3.832-6.743 1.848-6.743 1.505-.072-.342 2.755-2.531 5.22-4.174zm-1.306-3.969c0 1.164.508 2.259 1.596 2.874-5.51 3.49-6.09.822-6.38.479-.218-.273 2.682-1.916 4.784-3.353z" fill="#FFDFCC"/><path d="M52.637 130.152s1.088.411.87 1.437c-.072.137-1.885 1.095-2.32-.136-.072-.274 1.45-1.301 1.45-1.301zm2.61 2.122s1.016.479.798 1.368c0 .137-1.958 1.095-2.248-.136 0-.206 1.45-1.232 1.45-1.232zm3.988.958s.943.41.725 1.232c0 .136-1.958.821-2.103-.206 0-.205 1.378-1.026 1.378-1.026zm-7.25-7.801s1.45.068 1.16 1.779c0 .137-2.175.958-2.828-.342-.072-.205 1.668-1.437 1.668-1.437z" fill="#FFD7C0"/><path opacity=".75" d="M73.88 124.541s-6.09-1.984-6.597-1.847c2.465 1.779 3.987 6.227 3.19 8.895 1.812-.068 2.175-.41 3.407.343 0 0 3.553-3.217 0-7.391z" fill="#FFDFCC"/><path d="M66.775 120.914s8.7 4.38 6.816 14.85c0 0 33.641-18.476 32.409-24.84-1.233-6.433-14.719-41.263-23.926-46.669 0 0-9.136 3.01-3.335 26.14 0 0 10.077 17.176 10.947 19.092.363.684-22.91 11.427-22.91 11.427z" fill="#9B673C"/><path opacity=".25" d="M83.669 91.49c-1.885-4.037-3.19-8.28-5.003-12.317-.072-.069-.145-.206-.217-.274-.653-.89-1.16-1.78-1.668-2.6-.072 3.558.435 8.143 1.958 14.028 0 0 10.078 17.175 10.948 19.091.362.753-22.984 11.428-22.984 11.428s2.755 1.369 4.858 4.448c2.972-3.285 15.08-12.18 22.113-15.67-5.365-5.475-6.815-11.291-10.005-18.134z" fill="#9B6E4D"/><path d="M13.268 103.191c.58-.41 1.232-.616 1.957-.752 1.16-.137 2.828-.411 3.19-.616.508-.342 6.308.889 6.308-1.711 0-.342-.217-.616-.58-.753-.87-.273-3.117-.82-7.468-.479-6.09.48-5.365.684-5.727.89-.435.137-3.915 2.669-3.553 3.216.218.547.435 3.832 5.873.205z" fill="#FFC39A"/><path opacity=".32" d="M20.373 98.813c-1.015-.069-2.248 0-3.698.068-6.09.48-5.365.684-5.728.89-.362.137-2.972 2.053-3.48 2.874.073.137.29.753.363.889.507-.889 3.117-2.737 3.48-2.874.435-.136-.508-.89 5.583-1.368 1.45-.137 2.61-.137 3.625-.069-.145-.136-.145-.273-.145-.41z" fill="#ECAE8B"/><path opacity=".75" d="M11.6 99.428c-.58.136-.508.273-.725.342-.435.137-3.915 2.668-3.553 3.216.29.479.508 3.832 5.946.137.072-.069.145-.069.217-.137-1.015-.958-1.595-2.19-1.885-3.558z" fill="#FFDFCC"/><path d="M22.258 99.36s-1.015.684-.217 1.847c.072.137 2.175.274 2.247-1.027.073-.684-2.03-.82-2.03-.82z" fill="#FFD7C0"/><path d="M15.733 105.04s2.61-.822 3.263-.89c.652-.068 6.888.411 6.38-1.916-.072-.205-.217-.411-.435-.479-1.015-.274-3.988-.958-7.903-.274-4.785.89-7.323 2.258-7.395 3.148-.073.821-.073 4.106 6.09.411z" fill="#FFC39A"/><path opacity=".32" d="M20.808 101.138c-1.16 0-2.392.069-3.842.274-4.786.89-7.323 2.258-7.396 3.148v.41c.073.069.145.137.145.274v-.274c.073-.889 2.61-2.258 7.396-3.147a15.218 15.218 0 013.842-.274c0-.137-.072-.274-.145-.411z" fill="#ECAE8B"/><path opacity=".75" d="M13.413 102.37c-2.465.753-3.77 1.642-3.77 2.258-.072.821 0 3.901 5.51.821a6.988 6.988 0 01-1.74-3.079z" fill="#FFDFCC"/><path d="M23.419 101.754c-.145 0-.29 0-.435.137-.218.205-.508.753-.073 1.506.073.136 2.03.273 2.03-.958.073-.411-1.015-.616-1.522-.685z" fill="#FFD7C0"/><path d="M17.328 107.571c.29-.137.508-.274.798-.342.87-.206 2.682-.616 2.972-.616.363-.069 3.408.068 3.988-1.506.145-.342-.072-.752-.507-.821-.726-.137-2.61-.547-6.018-.068 0 0-3.045.684-3.77 1.026-.725.411-3.263 1.506-3.118 2.121.29.616.508 3.285 5.655.206z" fill="#FFC39A"/><path opacity=".75" d="M14.863 105.244c-.725.411-3.262 1.506-3.117 2.121.145.548.362 2.943 4.712.753-.797-.821-1.305-1.847-1.595-2.874z" fill="#FFDFCC"/><path opacity=".32" d="M21.896 104.013c-.87 0-1.957 0-3.262.205 0 0-3.046.684-3.77 1.027-.726.41-3.263 1.505-3.118 2.121 0 .068 0 .137.072.205.073.137.145.205.218.342v-.068c-.145-.616 2.392-1.711 3.117-2.121.725-.411 3.77-1.027 3.77-1.027 1.306-.137 2.32-.205 3.19-.205a.719.719 0 01-.217-.479z" fill="#ECAE8B"/><path d="M22.911 104.491s-.507.822.145 1.437c.073.069 2.103-.342 1.668-1.231-.145-.274-1.813-.206-1.813-.206z" fill="#FFD7C0"/><path d="M10.658 100.454c.435-.342 1.087-.821 1.667-.958 1.088-.274 3.118-.753 3.77-.958.798-.205 7.396 1.232 6.96-1.437-.072-.41-.362-.753-.797-.821-1.595-.342-6.308-1.095-11.818.068a2.034 2.034 0 00-1.087.548c-1.16.89-3.77 3.01-3.553 4.037.362 1.232 1.087 2.532 2.103 1.642.725-.615 1.667-1.3 2.755-2.121z" fill="#FFC39A"/><path opacity=".32" d="M19.068 95.87c-2.247-.206-5.293-.206-8.628.547a2.034 2.034 0 00-1.087.548c-1.015.752-3.19 2.531-3.48 3.626l.435.411c.435-1.095 2.465-2.737 3.48-3.49.362-.274.725-.41 1.087-.547 3.19-.685 6.09-.685 8.338-.548-.072-.205-.145-.41-.145-.547z" fill="#ECAE8B"/><path opacity=".75" d="M10.15 96.485c-.29.069-.58.206-.797.41-1.16.89-3.77 3.012-3.553 4.038.362 1.232 1.087 2.532 2.103 1.642.725-.615 2.03-1.573 2.972-2.258.218-.137.508-.342.798-.479a7.837 7.837 0 01-1.523-3.353z" fill="#FFDFCC"/><path d="M20.736 96.211s-1.378.548-.508 2.053c.073.137 2.61.274 2.61-1.095-.072-.752-2.102-.958-2.102-.958z" fill="#FFD7C0"/><path opacity=".75" d="M52.492 26.345c3.408-.273 7.903-.547 11.166.41 1.522.48 2.755 1.096 3.842 1.848.798-3.353.943-7.185-1.595-9.306-2.247-1.848-5.292-2.874-8.265-3.285-5.438-.684-11.89 1.985-14.283 6.57-.798 1.505-1.523 3.147-2.03 4.79 3.552.068 7.323-.753 11.165-1.027z" fill="#FFD6BD"/><path opacity=".5" d="M64.093 24.36c.87.548 1.087 1.575 1.16 2.601 3.698.41 7.54 1.232 10.803 2.737.435-5.406 0-11.017-2.683-14.233-5.655-6.638-30.016-2.737-28.349 6.364 0 0 1.958 1.3 4.786 2.532 2.32.89 10.948-2.19 14.283 0z" fill="#4D4F5C"/><path d="M40.747 16.56s-7.106-.273-6.453 4.38c.725 5.27 18.126 2.6 26.536 1.984 8.41-.615 19.213 9.17 21.244 1.164 0 0 .072-2.053-3.046-2.943 0 0 4.568-17.928-14.645-20.734-17.546-2.668-20.664 10.06-23.636 16.15z" fill="#FFD11A"/><path opacity=".65" d="M39.732 17.928c2.392 2.464 6.96 2.67 9.353 2.67 3.697-.07 7.395-.548 11.165-.548 2.103 0 4.278-.41 6.38-.274 2.755-12.454-5.51-17.997-5.51-18.134-14.138-.82-16.82 10.06-19.503 15.465 0 0-1.088-.068-2.393.206.218.136.29.41.508.615z" fill="#FFD11A"/><path d="M79.536 21.281c-1.958 1.164-4.64 1.3-7.396.343-6.017-2.122-12.615-1.164-18.85-.822-3.046.137-6.308.548-9.28.069-2.538-.41-3.916-1.437-5.874-2.943-.362-.273-.652-.547-.87-.89-1.667.548-3.262 1.643-2.972 3.901.725 5.27 18.126 2.6 26.536 1.985 8.41-.616 19.213 9.17 21.243 1.163.073-.068.073-1.848-2.537-2.806z" fill="#FEC30C"/><path d="M79.536 21.281c-1.958 1.164-4.64 1.3-7.396.343-6.017-2.122-12.615-1.164-18.85-.822-3.046.137-6.308.548-9.28.069-2.538-.41-3.916-1.437-5.874-2.943-.362-.273-.652-.547-.87-.89-1.667.548-3.262 1.643-2.972 3.901.725 5.27 18.126 2.6 26.536 1.985 8.41-.616 19.213 9.17 21.243 1.163.073-.068.073-1.848-2.537-2.806z" fill="#FFD11A"/><path d="M80.189 21.966c-1.958 1.163-4.713 1.3-7.54.342-6.163-2.121-12.834-1.232-19.214-.958-3.045.137-6.453.547-9.498.068-2.61-.41-3.988-1.505-5.945-2.942-.363-.274-.653-.548-.87-.89-1.088.342-2.175.89-2.683 1.916.362-1.368 1.595-2.053 2.828-2.463.217.342.507.616.87.89 1.957 1.505 3.262 2.531 5.872 2.942 2.973.479 6.308.068 9.28-.069 6.309-.342 12.834-1.231 18.852.822 2.755.958 5.51.82 7.395-.343 1.088.411 1.74.958 2.103 1.506-.363-.342-.798-.548-1.45-.821z" fill="#FFEE47"/><path d="M51.984 34.694s-.072-3.627 3.263-3.559c3.408.137 2.755 3.559 2.03 4.38-.725.89-4.93-.137-5.293-.821z" fill="#FFFEFF"/><path d="M57.35 33.94c0 1.164-1.015 2.19-2.175 2.19-1.233 0-2.175-.957-2.175-2.19 0-1.162 1.015-2.189 2.175-2.189s2.175.958 2.175 2.19z" fill="url(#paint14_linear)"/><path d="M51.767 33.12s.87-2.258 3.118-2.258c3.77 0 3.19 3.147 3.19 3.147s-.798-1.71-2.828-1.847c-1.957-.137-3.262.89-3.48.958z" fill="#733F27"/><path d="M56.48 33.53c0 .206-.145.343-.363.343-.217 0-.362-.137-.362-.343 0-.205.145-.342.362-.342.218-.068.363.137.363.342z" fill="#fff"/><path d="M42.85 34.695c-.363-.137-.653-.41-.653-.82-.073-.959.072-2.738 1.885-2.943 2.61-.274 3.77 2.19 2.392 3.9-.434.48-2.61.137-3.625-.137z" fill="#733F27"/><path d="M42.85 34.695c-.363-.137-.653-.41-.653-.82-.073-.959.072-2.738 1.885-2.943 2.61-.274 3.77 2.19 2.392 3.9-.434.48-2.61.137-3.625-.137z" fill="#FFFEFF"/><path d="M46.692 33.394c0 1.026-.87 1.847-1.885 1.847-1.015 0-1.885-.821-1.885-1.847 0-1.027.87-1.848 1.885-1.848 1.015 0 1.885.821 1.885 1.848z" fill="url(#paint15_linear)"/><path d="M44.3 31.751c1.523-.137 2.394.342 2.756 1.3-.072-1.3-1.233-2.395-2.973-2.19-1.377.137-1.812 1.164-1.885 2.053.218-.684 1.015-1.026 2.103-1.163z" fill="#733F27"/><path d="M46.04 32.846c0 .205-.145.342-.363.342s-.362-.137-.362-.342c0-.205.145-.342.362-.342.218 0 .362.205.362.342z" fill="#fff"/><path d="M49.592 30.109s-1.812 2.669-3.842 5.132c-1.813 2.258-4.568 4.722-4.278 5.27.58 1.094 7.25 2.257 6.525-1.233-.87-4.242 2.61-3.284 1.595-9.17z" fill="#FFC39A"/><path d="M45.46 35.241c-1.813 2.258-4.133 4.585-3.843 5.132.073.137 1.16.069 1.088-.41-.145-.548 1.74-2.532 3.625-4.79.725-.958 2.682-3.97 2.972-4.448v-.137c-.652.89-2.32 2.806-3.842 4.653z" fill="url(#paint16_linear)"/><path opacity=".65" d="M46.91 39.142c-.58-.069-1.015-.616-.725-1.095.652-1.437 3.842-6.57 3.987-6.296v.069c.29.615-.87 3.832-1.45 6.364-.217.89 1.885 2.531-1.087 3.216 1.232-.48 1.16-1.506.725-1.78-.29-.273-.798-.41-1.45-.478z" fill="#F5AF87"/><path d="M43.067 40.715c.653-.136 1.305-.205 1.885.069a40.71 40.71 0 011.378.616c-2.175.273-3.625-.41-4.06-.616.29 0 .58 0 .797-.069z" fill="#F5AF87"/></g><defs><linearGradient id="paint0_linear" x1="64.641" y1="262.259" x2="61.461" y2="121.39" gradientUnits="userSpaceOnUse"><stop stop-color="#337A9B"/><stop offset=".914" stop-color="#045B7E"/></linearGradient><linearGradient id="paint1_linear" x1="59.524" y1="264.019" x2="56.306" y2="121.465" gradientUnits="userSpaceOnUse"><stop stop-color="#337A8E"/><stop offset=".914" stop-color="#045B74"/></linearGradient><linearGradient id="paint2_linear" x1="1.065" y1="81.329" x2="9.356" y2="88.769" gradientUnits="userSpaceOnUse"><stop offset=".086" stop-color="#F8ECD1"/><stop offset=".262" stop-color="#F7EACB"/><stop offset=".492" stop-color="#F5E3BB"/><stop offset=".751" stop-color="#F1D8A0"/><stop offset=".838" stop-color="#EFD495"/></linearGradient><linearGradient id="paint3_linear" x1="9.559" y1="86.931" x2="11.574" y2="88.986" gradientUnits="userSpaceOnUse"><stop offset=".259" stop-color="#F5E5C2"/><stop offset=".844" stop-color="#F2DDAE"/></linearGradient><linearGradient id="paint4_linear" x1="5.371" y1="82.604" x2="8.995" y2="86.149" gradientUnits="userSpaceOnUse"><stop offset=".086" stop-color="#F8ECD1"/><stop offset="1" stop-color="#EFD495"/></linearGradient><linearGradient id="paint5_linear" x1="7.674" y1="83.397" x2="9.99" y2="85.662" gradientUnits="userSpaceOnUse"><stop offset=".086" stop-color="#F8ECD1"/><stop offset="1" stop-color="#EFD495"/></linearGradient><linearGradient id="paint6_linear" x1="8.737" y1="85.416" x2="9.849" y2="86.709" gradientUnits="userSpaceOnUse"><stop stop-color="#F5E5C2"/><stop offset=".844" stop-color="#F2DDAE"/></linearGradient><linearGradient id="paint7_linear" x1="7.191" y1="83.986" x2="8.665" y2="85.427" gradientUnits="userSpaceOnUse"><stop offset=".086" stop-color="#F8ECD1"/><stop offset="1" stop-color="#EFD495"/></linearGradient><linearGradient id="paint8_linear" x1="6.113" y1="62.368" x2="12.514" y2="71.314" gradientUnits="userSpaceOnUse"><stop offset=".086" stop-color="#F8ECD1"/><stop offset=".262" stop-color="#F7EACB"/><stop offset=".492" stop-color="#F5E3BB"/><stop offset=".751" stop-color="#F1D8A0"/><stop offset=".838" stop-color="#EFD495"/></linearGradient><linearGradient id="paint9_linear" x1="13.111" y1="69.581" x2="14.618" y2="71.991" gradientUnits="userSpaceOnUse"><stop offset=".259" stop-color="#F5E5C2"/><stop offset=".844" stop-color="#F2DDAE"/></linearGradient><linearGradient id="paint10_linear" x1="10.021" y1="64.497" x2="12.762" y2="68.688" gradientUnits="userSpaceOnUse"><stop offset=".086" stop-color="#F8ECD1"/><stop offset="1" stop-color="#EFD495"/></linearGradient><linearGradient id="paint11_linear" x1="12.086" y1="65.744" x2="13.838" y2="68.421" gradientUnits="userSpaceOnUse"><stop offset=".086" stop-color="#F8ECD1"/><stop offset="1" stop-color="#EFD495"/></linearGradient><linearGradient id="paint12_linear" x1="12.659" y1="67.933" x2="13.458" y2="69.416" gradientUnits="userSpaceOnUse"><stop stop-color="#F5E5C2"/><stop offset=".844" stop-color="#F2DDAE"/></linearGradient><linearGradient id="paint13_linear" x1="11.48" y1="66.22" x2="12.594" y2="67.924" gradientUnits="userSpaceOnUse"><stop offset=".086" stop-color="#F8ECD1"/><stop offset="1" stop-color="#EFD495"/></linearGradient><linearGradient id="paint14_linear" x1="55.143" y1="35.914" x2="55.143" y2="31.998" gradientUnits="userSpaceOnUse"><stop offset=".059" stop-color="#733F27"/><stop offset="1" stop-color="#4D1E13"/></linearGradient><linearGradient id="paint15_linear" x1="44.811" y1="35.493" x2="44.811" y2="31.492" gradientUnits="userSpaceOnUse"><stop offset=".059" stop-color="#733F27"/><stop offset="1" stop-color="#4D1E13"/></linearGradient><linearGradient id="paint16_linear" x1="44.161" y1="34.543" x2="46.102" y2="36.126" gradientUnits="userSpaceOnUse"><stop offset=".118" stop-color="#FFD7BB"/><stop offset=".914" stop-color="#FFC39A"/></linearGradient><clipPath id="clip0"><path fill="#fff" d="M0 0h106v264H0z"/></clipPath></defs></svg>