<svg width="106" height="264" viewBox="0 0 106 264" fill="none" xmlns="http://www.w3.org/2000/svg">
<g clip-path="url(#clip0)">
<path d="M22.7659 107.16C22.7659 107.16 19.5758 101.344 14.0655 103.807C8.55524 106.271 7.97521 110.513 13.0505 113.661C18.1982 116.809 26.0286 111.403 22.7659 107.16Z" fill="#6F4325"/>
<path d="M47.272 256.473H54.8124V244.566H43.6468C40.4567 253.12 28.4211 253.53 26.246 254.009C24.0709 254.488 26.246 258.868 26.246 258.868L41.6167 257.978L47.0545 252.572L47.272 256.473Z" fill="#2A3236"/>
<path d="M74.4609 244.292V255.925C74.4609 255.925 78.4486 255.788 79.0287 256.815C79.4637 257.568 83.5239 263.453 86.714 263.863C89.1066 264.205 94.4719 264.068 93.0218 260.305C91.5717 256.541 82.7988 244.703 82.7988 244.703L74.4609 244.292Z" fill="#2A3236"/>
<path d="M42.7041 125.362C42.7041 125.362 36.3238 136.379 36.0338 150.065C35.6713 167.241 39.0064 191.191 39.8765 194.134C40.1665 195.023 40.7465 200.498 40.6015 207.888C40.529 211.378 39.2239 244.429 38.4989 246.756C38.4989 246.756 46.9818 249.767 57.2048 246.756C57.2048 246.756 57.2773 211.925 57.2048 209.941C56.9873 200.977 54.6672 193.586 54.5947 190.986C54.4496 187.838 54.0146 146.575 55.0297 145.207C55.0297 145.207 65.6152 193.723 66.4852 196.529C67.0652 198.376 68.2253 207.546 68.4428 211.925C69.0953 223.353 70.5454 248.056 70.5454 248.056C70.5454 248.056 85.6261 249.63 90.0488 246.482C90.0488 246.482 86.1336 225.406 84.4661 215.826C83.5235 210.557 79.5358 188.454 79.5358 186.675C79.5358 185.785 78.8108 165.736 77.0707 149.107C75.8382 137.269 72.2855 127.894 68.8053 125.294C68.8778 125.362 46.4018 126.389 42.7041 125.362Z" fill="url(#paint0_linear)"/>
<path opacity="0.5" d="M77.2159 150.887C76.2733 151.366 69.0955 153.145 66.7754 153.145C63.1502 153.213 60.3951 153.008 56.6974 152.05C55.8274 147.944 55.2473 145.275 55.2473 145.275C55.0298 145.618 54.8123 148.218 54.7398 152.118C53.0722 152.255 49.3021 153.692 45.1694 153.829C41.8342 153.897 39.2966 153.487 36.1064 152.597C36.1064 151.776 36.1064 150.887 36.1064 150.065C36.3965 136.38 42.7768 125.362 42.7768 125.362C46.5469 126.32 69.023 125.362 69.023 125.362C72.5032 127.963 76.0558 137.338 77.2884 149.176C77.3609 149.723 77.3609 150.271 77.4334 150.818C77.2884 150.818 77.2884 150.887 77.2159 150.887Z" fill="url(#paint1_linear)"/>
<path d="M64.2378 42.9735C59.235 45.6423 53.1447 50.5692 47.3445 50.227C47.1269 53.0326 46.6194 57.4121 45.7494 59.0544C44.4443 61.5863 41.4717 63.297 41.4717 63.297C41.4717 63.297 47.3445 72.3981 55.7549 69.4556C64.1653 66.5132 67.0654 62.4074 67.6454 61.86C68.0804 61.381 63.5852 50.8429 64.2378 42.9735Z" fill="#FFB481"/>
<path d="M40.7467 63.8444L47.0545 60.8336L54.8124 60.4914L67.138 59.465L73.5183 65.5552L53.2173 100.591C53.1448 100.591 38.4991 80.2675 40.7467 63.8444Z" fill="#E6D7B6"/>
<path opacity="0.5" d="M50.0272 62.8865L52.8548 67.1291L47.8521 83.21L52.8548 93.2006L57.8575 82.5941L54.5949 67.3344L58.7276 61.6548L54.9574 58.0964L50.0272 62.8865Z" fill="#CCCDCE"/>
<path d="M49.2298 62.6127L51.9849 66.8553L47.0547 82.9362L51.9849 92.9268L56.5526 83.4836L53.725 67.129L57.8577 61.4494L54.0875 57.8226L49.2298 62.6127Z" fill="#32333A"/>
<path d="M65.1079 52.0062L54.0874 57.8227L58.8726 66.1711L67.6455 59.465L65.1079 52.0062Z" fill="#F8F8F6"/>
<path d="M49.0121 65.8974L54.0873 57.8228L46.402 56.8647L42.3418 62.6812L49.0121 65.8974Z" fill="#F8F8F6"/>
<path d="M57.5675 16.0809C52.1298 15.3966 45.677 18.0654 43.2844 22.6501C42.3418 24.4977 41.3993 26.619 40.9643 28.6035C39.8767 33.8041 39.4417 36.6097 38.5716 40.0312C37.7741 43.3158 40.3842 53.9907 43.5744 54.5382C46.7645 55.0172 60.6852 52.759 61.7727 50.843C62.8603 48.927 63.5853 42.6999 63.5853 42.6999C63.5853 42.6999 69.0231 44.0001 71.1982 38.9363C73.3733 33.8725 70.3281 31.2038 65.0354 34.9674C65.0354 34.9674 70.9082 23.6081 65.7604 19.2971C63.5853 17.4495 60.5402 16.4231 57.5675 16.0809Z" fill="#FFC39A"/>
<path d="M73.3734 15.465C67.7181 8.82733 41.3269 14.1648 42.9945 23.2659C42.9945 23.2659 46.1121 24.9766 49.8098 24.9082C52.3474 24.8398 60.7578 22.171 64.093 24.3608C65.4705 25.2503 65.3255 27.4401 65.1805 28.8087C64.963 31.3405 64.3105 33.804 63.5129 36.199C62.6429 39.073 61.5553 41.9471 60.2503 44.6842C59.4527 43.6578 58.2202 42.2892 56.2626 41.4681C54.2325 40.5785 52.2024 41.6049 47.2722 42.0155C45.8221 42.1524 43.937 41.9471 41.9794 41.2628C40.7468 40.8522 38.4267 41.6049 38.4267 41.6049C37.7742 45.3001 40.2393 57.3437 43.357 57.8227C46.5471 58.3017 60.4678 54.059 61.5553 52.143C62.1354 51.0482 63.2229 48.0373 64.0205 45.5738C65.9055 45.916 71.9233 46.6687 73.3009 43.1104C74.8235 38.8678 78.9562 22.1026 73.3734 15.465ZM65.108 42.1524C64.818 40.8522 64.528 40.5785 64.383 39.6889C64.818 38.3203 65.3255 36.9517 65.833 35.8569C66.9206 33.5987 68.0081 33.5987 69.4582 33.7356C72.7209 34.1461 71.0533 43.1788 65.108 42.1524Z" fill="#76432C"/>
<path opacity="0.32" d="M43.5744 53.5802C42.3418 53.3749 39.8042 49.885 39.8042 49.885C40.7467 53.4433 42.1243 56.5911 43.7194 56.8648C46.837 57.3438 60.1052 53.238 61.1927 51.3904C61.7002 50.4324 62.5703 47.9006 63.3678 45.7108C60.1052 50.7062 49.8097 54.675 43.5744 53.5802Z" fill="#754F39"/>
<path opacity="0.75" d="M46.9819 26.1399C46.4018 25.9346 43.6467 26.0715 41.9791 26.8927C41.4716 27.0979 41.1816 27.5085 40.9641 27.8507C40.9641 28.0559 40.9641 28.1928 40.8916 28.3981C40.8916 28.7402 40.8191 29.0824 40.7466 29.3561C40.8191 29.3561 40.8191 29.3561 40.8916 29.3561C42.4867 29.3561 46.6194 29.2192 46.7644 28.8771C46.9819 28.4665 47.9969 26.4821 46.9819 26.1399Z" fill="#FFD6BD"/>
<path opacity="0.75" d="M61.1199 30.5878C61.1199 30.5878 57.1322 29.3561 56.2622 29.3561C55.4647 29.3561 51.4045 29.6298 51.332 29.3561C51.2595 29.0824 50.6794 26.482 52.1295 26.4136C53.5796 26.3452 57.7848 26.7558 58.5098 27.2348C59.3073 27.7138 63.005 30.6562 61.1199 30.5878Z" fill="#FFD6BD"/>
<path d="M40.8192 27.9875C40.6741 28.3981 40.5291 28.8771 41.1092 28.8771C42.7042 28.8771 46.8369 28.7402 46.9819 28.3981C47.1269 27.9875 48.2145 26.0031 47.1269 25.6609C46.5469 25.4556 43.7918 25.5925 42.1242 26.4136C41.3267 26.7558 41.0367 27.4401 40.8192 27.9875Z" fill="#733F27"/>
<path d="M61.2649 30.0404C61.2649 30.0404 57.2773 28.8087 56.4072 28.8087C55.6097 28.8087 51.5495 29.0824 51.477 28.8087C51.4045 28.535 50.8245 25.9347 52.2745 25.8663C53.7246 25.7978 57.9298 26.2084 58.6548 26.6874C59.4524 27.1664 63.15 30.1773 61.2649 30.0404Z" fill="#733F27"/>
<path d="M42.4868 42.8367C42.4868 42.8367 43.5019 48.9269 48.2146 48.6532C52.9273 48.3111 55.8999 42.4261 55.8999 42.4261C55.8999 42.4261 47.6346 45.7792 42.4868 42.8367Z" fill="#E05C4A"/>
<path d="M54.7399 42.8367C53.4349 44.6158 51.1148 47.0793 48.1421 47.2161C45.0245 47.4214 43.5744 44.8211 42.9219 43.042C46.9096 44.958 52.4198 43.5894 54.7399 42.8367Z" fill="#FFFEFF"/>
<path d="M25.1586 110.239L17.5457 105.039L9.86035 108.802C9.86035 108.802 13.558 113.182 19.4308 114.893C25.3036 116.672 26.7536 111.471 25.1586 110.239Z" fill="#F6AE77"/>
<path d="M31.6112 67.4712L30.5961 69.3872C28.7835 72.8087 27.406 76.5039 26.6809 80.2675C26.4634 81.4308 26.3184 82.5256 26.2459 83.4836L26.6084 107.502L19.5031 104.697C19.5031 104.697 24.6508 108.118 19.9381 111.676C15.3704 115.098 10.1501 113.456 9.64261 108.255C9.64261 108.255 8.99008 113.045 11.7452 114.55C16.4579 117.151 37.9915 125.089 39.4415 125.089C40.8916 125.089 42.3417 122.967 40.4566 115.372C38.5715 107.776 41.6166 96.9642 31.6112 67.4712Z" fill="#9B673C"/>
<path opacity="0.25" d="M37.3391 91.0108C37.6291 91.9689 37.9916 92.9269 38.3541 93.8849C37.6291 88.958 36.3241 82.9362 34.2215 75.6143C34.0039 76.9828 34.0039 78.3514 34.294 79.6516C35.0915 83.4836 36.1065 87.3157 37.3391 91.0108Z" fill="#9B6E4D"/>
<path opacity="0.25" d="M39.5868 119.341C32.3364 118.998 25.8836 115.577 20.5184 111.061C20.3008 111.266 20.0833 111.403 19.8658 111.608C15.2981 115.03 10.0779 113.387 9.57035 108.187C9.57035 108.187 8.91782 112.977 11.6729 114.482C16.3857 117.082 37.9192 125.02 39.3692 125.02C40.5293 125.02 41.6894 123.652 41.1093 119.204C40.6743 119.272 40.1668 119.341 39.5868 119.341Z" fill="#9B6E4D"/>
<path opacity="0.25" d="M41.3267 120.778C41.2542 118.314 40.4567 115.988 40.0941 113.592C38.7891 113.25 37.629 112.634 36.759 111.676C35.7439 110.513 35.2364 108.939 34.6564 107.639C33.3513 104.56 32.1913 101.412 31.1762 98.1959C30.2337 100.659 29.1461 103.123 27.7686 105.244C29.4361 110.65 32.3363 117.219 29.6536 121.872C29.6536 121.872 35.3814 123.994 38.2816 124.815C39.0066 125.02 39.7316 125.225 40.3116 124.678C41.3992 123.72 41.3267 121.941 41.3267 120.778Z" fill="#8F5C37"/>
<path d="M4.2775 93.9534C6.4526 93.2006 8.4827 92.3111 10.2228 91.0109C12.1804 89.5739 15.0805 86.9736 15.588 84.5786C15.733 83.9627 15.8055 83.2784 15.9505 82.6626C15.153 81.9098 14.428 81.1571 13.9205 80.4728C13.9205 80.4728 12.8329 80.1991 10.9478 80.9518C10.8028 81.0203 10.0778 79.9938 8.99022 78.7621C8.99022 78.7621 -0.870246 80.1307 0.0722984 91.5583C0.0722984 91.5583 1.59487 92.4479 4.13249 93.9534C4.13249 94.0218 4.20499 94.0218 4.2775 93.9534Z" fill="url(#paint2_linear)"/>
<path d="M13.558 84.5101C12.688 83.6889 11.818 82.9362 11.0204 82.0466C10.5854 83.0046 9.93287 83.7574 8.99033 84.3732C8.70032 84.7838 8.4103 85.1944 8.04779 85.4681C7.54026 85.8787 6.96023 86.2208 6.45271 86.6314C7.10524 86.2208 6.52521 86.6314 6.38021 86.8367C5.80018 87.4525 5.29265 88.2737 4.49512 88.6158C5.07514 89.3686 8.48281 91.4899 9.20784 92.1741C9.93287 91.832 9.64286 91.5583 10.2954 91.1477C11.963 89.9844 14.2106 87.9315 15.2256 85.9471C14.5731 85.3997 14.0656 84.9891 13.558 84.5101Z" fill="url(#paint3_linear)"/>
<path d="M13.9204 80.5413C15.2255 85.3313 10.3678 93.4744 1.23232 91.9005C0.7973 91.8321 0.434783 91.7637 0.0722656 91.6268C0.0722656 91.6268 36.324 112.771 44.5169 121.188L41.8342 103.26C41.9067 103.26 19.8657 87.5895 13.9204 80.5413Z" fill="#F8ECD1"/>
<path d="M9.35254 90.3951C12.8327 91.9005 16.0954 94.0218 19.213 96.1431C21.3881 97.6486 23.3457 99.3593 25.5208 100.865C27.6234 102.302 29.9435 103.465 31.9736 104.971C34.1487 106.613 35.7438 108.597 37.3389 110.719C37.8464 111.403 39.0789 113.387 39.7315 113.593C41.3991 114.14 42.7766 115.03 43.8642 116.193L41.9791 103.26C41.9791 103.26 20.0105 87.6579 13.9928 80.5413C14.7903 83.6206 13.0502 88.0001 9.35254 90.3951Z" fill="#F8ECD1"/>
<path d="M41.9067 103.26C41.9067 103.26 19.9382 87.6579 13.9204 80.5413C14.0654 81.1571 14.1379 81.773 14.1379 82.4573C16.893 87.2473 17.9081 91.5584 16.5305 94.364C17.4731 94.9798 18.3431 95.5957 19.2132 96.1431C21.3883 97.6486 23.3459 99.3593 25.521 100.865C27.6236 102.302 29.9437 103.465 31.9738 104.971C34.1489 106.613 35.7439 108.597 37.339 110.719C37.8465 111.403 39.0791 113.387 39.7316 113.593C41.3992 114.14 42.7768 115.03 43.8643 116.193L41.9067 103.26Z" fill="#F8ECD1"/>
<path d="M44.3717 117.904C43.9366 115.372 43.7916 114.687 43.2841 112.224C43.2841 112.224 30.9585 107.229 24.1432 102.37C23.8532 102.302 23.4907 102.165 23.2007 102.028C18.0529 99.9067 11.8176 95.4588 9.78754 91.832C6.37988 93.5428 3.55225 92.8585 3.55225 92.8585C3.55225 92.8585 33.4237 110.308 44.5167 119.614C44.5892 119.067 44.5167 118.451 44.3717 117.904Z" fill="#F5E4BD"/>
<path d="M11.0926 80.9518C11.0926 80.9518 3.3347 82.7994 4.13224 87.9316C4.56726 90.6003 14.1377 86.3577 11.0926 80.9518Z" fill="url(#paint4_linear)"/>
<path d="M11.6004 82.731C9.93279 82.7995 7.54018 85.3998 6.30762 86.2893C6.38012 86.3578 9.06275 87.1105 9.06275 87.3158C10.5853 86.2209 11.8904 84.5786 11.6729 82.6626C11.6729 82.731 11.6004 82.731 11.6004 82.731Z" fill="url(#paint5_linear)"/>
<path d="M10.3678 83.689C10.0053 84.0311 9.06275 83.6205 8.70023 84.0311C8.1202 84.7154 7.61268 85.3997 6.96015 86.084C6.81514 86.2208 6.45262 86.2893 6.30762 86.3577C6.88764 86.8367 7.68518 87.3841 8.26521 87.9316C9.57027 87.1788 10.8753 86.084 11.3829 84.7154C10.8028 84.0995 10.3678 83.689 10.3678 83.689Z" fill="url(#paint6_linear)"/>
<path d="M6.23486 86.2208C7.39492 86.6998 9.71503 85.8102 10.3676 83.6205C9.86004 83.1415 6.81489 83.6889 6.23486 86.2208Z" fill="url(#paint7_linear)"/>
<path d="M6.3803 75.409C8.62791 75.1353 10.8755 74.6563 12.9056 73.7667C15.1532 72.8087 18.5609 70.8242 19.6484 68.5661C19.9384 67.9502 20.156 67.4028 20.446 66.7869C19.8659 65.8289 19.3584 65.0077 18.9234 64.255C18.9234 64.255 17.9083 63.776 15.8783 64.1182C15.7332 64.1182 15.2257 63.0233 14.5007 61.5863C14.5007 61.5863 4.56772 60.902 2.82764 72.2612C2.82764 72.2612 4.1327 73.4245 6.2353 75.409C6.2353 75.3405 6.3078 75.3405 6.3803 75.409Z" fill="url(#paint8_linear)"/>
<path d="M17.5455 68.087C16.8205 67.129 16.2405 66.171 15.6604 65.1445C15.0079 65.9657 14.2104 66.5815 13.1228 66.9921C12.7603 67.3343 12.3978 67.6764 11.9628 67.8817C11.3827 68.1554 10.7302 68.4291 10.1502 68.6344C10.8752 68.3607 10.2227 68.7029 10.0777 68.7713C9.42515 69.2503 8.62762 69.9346 7.83008 70.0714C8.2651 70.8926 11.0927 73.6982 11.6003 74.5193C12.3978 74.3141 12.1803 74.0403 12.9053 73.6982C14.7904 72.877 17.473 71.3716 18.9231 69.5924C18.4156 69.1134 17.9806 68.6344 17.5455 68.087Z" fill="url(#paint9_linear)"/>
<path d="M18.8506 64.1865C19.0682 69.1819 12.3978 76.0932 3.84243 72.6717C3.47992 72.5349 3.0449 72.398 2.75488 72.1927C2.75488 72.1927 33.2788 100.249 39.3691 110.171L40.8917 92.1057C40.8917 92.1741 23.0558 72.398 18.8506 64.1865Z" fill="#F8ECD1"/>
<path d="M40.6017 96.9641C36.1065 91.4898 22.1859 74.5193 19.2132 69.7977C18.7782 70.482 18.2707 71.2347 17.6182 71.8506C21.0258 76.2985 34.9465 92.9268 40.5292 99.2223C40.4567 98.4696 40.4567 97.7169 40.6017 96.9641Z" fill="#FCF6E8"/>
<path d="M40.0215 106.955C40.1665 104.423 40.239 103.739 40.3115 101.138C40.3115 101.138 26.9708 92.0373 22.3306 85.6733C19.938 82.4572 17.4004 78.8988 16.3128 72.8771C11.4551 75.888 6.08984 74.1088 6.08984 74.1088C6.08984 74.1088 31.2485 97.2379 39.9489 108.666C39.8764 108.118 39.9489 107.502 40.0215 106.955Z" fill="#F8ECD1"/>
<path d="M15.9505 64.0497C15.9505 64.0497 7.9751 64.255 7.54008 69.4556C7.39507 72.1243 17.7631 69.9346 15.9505 64.0497Z" fill="url(#paint10_linear)"/>
<path d="M16.0232 65.8973C14.3556 65.6236 11.4554 67.6765 10.0054 68.2923C10.0779 68.3608 12.543 69.6609 12.4705 69.8662C14.2106 69.1135 15.8056 67.7449 16.0957 65.8973C16.0957 65.8973 16.0957 65.8973 16.0232 65.8973Z" fill="url(#paint11_linear)"/>
<path d="M14.6454 66.5816C14.2103 66.8553 13.3403 66.2395 12.9778 66.5816C12.2527 67.1291 11.5277 67.7449 10.8027 68.2239C10.6577 68.2923 10.2226 68.2923 10.0776 68.3608C10.5127 68.9766 11.1652 69.6609 11.6002 70.2768C13.0503 69.8662 14.5729 68.9766 15.3704 67.7449C14.9354 67.0606 14.6454 66.5816 14.6454 66.5816Z" fill="url(#paint12_linear)"/>
<path d="M10.0776 68.2238C11.0927 68.9766 13.5578 68.4976 14.6454 66.5131C14.2828 65.9657 11.1652 65.8973 10.0776 68.2238Z" fill="url(#paint13_linear)"/>
<path d="M25.6658 104.149C25.6658 104.149 26.3909 103.602 26.3184 102.781C26.1734 101.617 25.3758 101.549 25.3758 101.549C25.3758 101.549 25.8108 100.728 25.5208 100.044C25.0133 98.6749 23.5632 98.8802 23.5632 98.8802C24.4333 98.1275 23.7082 96.0062 22.1132 95.8009C18.5605 95.3903 13.1952 95.4588 11.0926 96.8958C10.6576 97.2379 10.0051 97.1695 9.49756 97.3063C13.9928 100.044 19.503 103.397 24.9408 106.955C26.2459 106.75 26.5359 104.765 25.6658 104.149Z" fill="#F8ECD1"/>
<path opacity="0.65" d="M44.5893 119.683C44.5168 119.067 44.4442 118.451 44.3717 117.904C43.9367 115.372 43.7917 114.687 43.2842 112.224C43.2842 112.224 43.2117 112.224 43.1392 112.155L41.8341 103.26C41.8341 103.26 41.2541 102.849 40.1665 102.096C40.1665 101.823 40.1665 101.549 40.1665 101.207C40.1665 101.207 40.094 101.138 40.0215 101.138L40.1665 99.0171C40.2391 99.0855 40.3116 99.2224 40.3841 99.2908C40.3116 98.5381 40.3116 97.7854 40.4566 97.0326C40.4566 96.9642 40.3841 96.9642 40.3841 96.8958L40.8191 92.1741C40.8191 92.1741 35.0913 85.8102 29.3635 78.8304C28.6385 81.8413 29.7986 85.2628 28.711 88.0684C24.9408 97.6485 27.986 105.586 27.696 108.734C33.4237 112.566 42.0516 118.725 44.4442 121.188L44.1542 119.341C44.3717 119.477 44.5168 119.546 44.5893 119.683Z" fill="#EEE3D7"/>
<path d="M44.1544 62.0653L31.6113 67.4712C31.6113 67.4712 34.0039 84.0311 34.0039 86.9736C34.0039 89.7792 32.7714 98.5381 37.8466 117.082C38.2091 118.451 38.2816 119.956 37.9191 121.325C36.6866 126.799 33.3514 140.896 32.6264 143.77C32.6264 143.77 52.4198 148.012 54.0149 142.059C55.61 136.174 52.2748 97.5117 51.9123 87.2473C51.9848 87.3157 46.112 72.8087 44.1544 62.0653Z" fill="#9B673C"/>
<path opacity="0.25" d="M41.6166 111.266C39.1515 106.339 39.4415 101.002 38.5715 95.7325C37.774 90.5319 36.3239 85.5366 34.1488 80.6781C33.8588 79.9938 33.4237 79.3095 33.0612 78.6252C33.4963 82.3204 33.9313 85.7419 33.9313 86.9052C33.9313 89.7108 32.6987 98.4697 37.774 117.014C38.1365 118.383 38.209 119.888 37.8465 121.257C36.6139 126.731 33.2787 140.827 32.5537 143.701C32.5537 143.701 52.3471 147.944 53.9422 141.991C54.6672 139.459 54.3772 130.768 53.8697 120.915C48.7945 119.683 43.9367 115.851 41.6166 111.266Z" fill="#9B6E4D"/>
<path d="M44.1544 62.0653C44.1544 62.0653 40.9643 62.8865 39.8042 64.0498C38.6441 65.2131 36.9766 73.1508 36.9766 73.1508L42.3418 74.9984L39.3692 79.3779C39.3692 79.3779 51.1147 99.2908 52.2748 102.165V86.9051C52.2748 86.9051 44.5169 63.9813 44.1544 62.0653Z" fill="#87522A"/>
<path d="M52.6375 87.1789L51.84 85.4681C51.84 85.4681 51.405 90.8741 51.405 96.0062C51.3325 100.659 51.3325 105.655 51.405 109.282C51.84 126.047 51.84 144.18 51.405 144.454C52.7825 143.975 53.7976 143.222 54.1601 142.059C55.6826 136.243 53 97.6485 52.6375 87.1789Z" fill="#7F4C2D"/>
<path d="M80.4788 141.238C80.4788 141.238 59.7428 147.944 55.9001 142.607C52.13 137.201 52.7825 117.63 52.42 107.502C52.0575 97.3748 52.6375 86.563 52.6375 86.563C52.6375 86.563 66.4856 66.0342 66.9932 59.5334L82.0014 64.1866C82.0014 64.1866 76.7811 73.5614 79.5363 90.874C79.5363 90.874 73.011 115.03 73.446 120.162C73.9535 125.362 80.4788 141.238 80.4788 141.238Z" fill="#9B673C"/>
<path opacity="0.25" d="M79.5362 90.874C78.9562 86.9736 78.7387 83.4837 78.7387 80.4728C78.0862 81.9098 77.5061 79.3779 76.9986 80.8833C74.9685 86.6314 74.316 96.4852 73.0109 102.302C71.4883 108.802 67.8632 114.003 61.6279 117.356C59.3078 118.588 55.9726 120.299 52.71 120.914C52.9275 129.81 53.5075 139.185 55.9726 142.607C59.7428 148.012 80.5513 141.238 80.5513 141.238C80.5513 141.238 74.026 125.362 73.5184 120.162C73.0109 115.03 79.5362 90.874 79.5362 90.874Z" fill="#9B6E4D"/>
<path d="M15.1528 101.754C15.1528 101.754 22.1132 106.613 21.0256 108.323C19.9381 110.034 16.1679 112.361 12.3977 111.334C9.35257 110.513 5.7274 101.754 5.7999 100.865C5.94491 99.1539 9.57008 96.6905 9.86009 96.6221C10.1501 96.6221 15.1528 101.754 15.1528 101.754Z" fill="#FFB989"/>
<path opacity="0.75" d="M15.5154 102.028C15.2978 101.891 15.1528 101.754 15.1528 101.754C15.1528 101.754 10.1501 96.6221 9.86009 96.6905C9.57008 96.7589 6.01741 99.1539 5.7999 100.933C5.7274 101.754 9.35257 110.582 12.3977 111.403C14.0653 111.882 15.7329 111.608 17.1829 111.129C14.5728 108.802 13.9928 104.834 15.5154 102.028Z" fill="#FFDFCC"/>
<path d="M67.0654 59.6019C67.0654 59.6019 72.5756 60.8337 73.8807 61.7232C73.8807 61.7232 70.908 70.5506 70.473 71.3033C70.038 72.0561 63.3677 73.9036 63.3677 73.9036L67.0654 79.0358C67.0654 79.0358 54.2323 98.0592 52.3472 102.165L52.4922 86.6315C53.3622 83.7575 66.5578 60.1494 67.0654 59.6019Z" fill="#87522A"/>
<path d="M73.5182 135.695C73.5182 135.695 63.8752 129.126 66.7028 120.846C66.7753 120.914 80.116 122.762 73.5182 135.695Z" fill="#6F4325"/>
<path d="M33.6416 113.045C33.6416 113.045 43.6471 136.927 44.0821 141.991C44.0821 141.991 56.4802 144.112 69.6758 137.474C69.6758 137.474 60.9029 116.261 60.9029 109.692C60.9029 109.692 45.8947 113.798 33.6416 113.045Z" fill="#D6D6D6"/>
<path d="M33.3516 113.798C33.3516 113.798 43.357 137.68 43.7921 142.743C43.7921 142.743 56.1901 144.865 69.3858 138.227C69.3858 138.227 60.6128 117.014 60.6128 110.445C60.5403 110.376 45.5321 114.482 33.3516 113.798Z" fill="#32333A"/>
<path opacity="0.32" d="M62.9331 120.846C60.468 120.709 58.1479 121.257 55.6827 121.393C55.3202 121.393 50.0275 125.02 49.1574 125.841C47.3448 128.442 51.115 129.057 51.115 129.057C51.0425 129.331 50.39 129.81 49.955 130.7C48.9399 132.821 52.5651 133.232 52.5651 133.232C52.4926 133.232 51.7675 135.764 56.1178 135.148C56.1178 135.148 56.6253 136.516 57.8578 136.516C60.3955 136.858 67.7183 134.258 67.7908 134.121C66.4132 130.837 64.5282 125.773 62.9331 120.846Z" fill="#545454"/>
<path opacity="0.45" d="M65.0354 130.768C63.4404 130.837 61.8453 130.631 60.2502 130.495C62.7153 130.7 59.0901 130.563 58.8726 130.563C58.1476 130.563 57.2051 131.863 56.48 131.795C52.5648 131.453 51.0423 132.068 47.4896 130.358C44.5895 129.058 39.7317 124.199 37.4116 121.736C40.1668 128.647 44.1544 138.98 44.4445 141.991C44.4445 141.991 55.9725 143.975 68.1531 137.816C68.1531 137.816 66.9205 134.806 65.3979 130.837C65.2529 130.7 65.1804 130.7 65.0354 130.768Z" fill="#484848"/>
<path d="M41.907 114.14C41.5445 113.182 40.8195 111.403 40.312 110.239C40.0944 109.76 40.457 109.213 40.9645 109.145C43.2846 108.939 48.2148 108.392 50.8974 107.708C51.3325 107.571 51.84 107.844 51.9125 108.323C52.13 109.35 52.4925 111.061 52.9275 112.155C53.0726 112.635 52.7825 113.114 52.275 113.182C51.84 113.25 51.405 113.045 51.26 112.635L50.6074 110.239C50.4624 109.829 50.0999 109.624 49.6649 109.692C48.2873 109.897 45.3147 110.308 43.5746 110.445C43.0671 110.513 42.7046 110.924 42.8496 111.403L43.4296 113.593C43.5746 114.003 43.2121 114.482 42.7771 114.551C42.4146 114.756 42.052 114.551 41.907 114.14Z" fill="#32333A"/>
<path d="M57.4949 105.039C57.4949 105.928 56.9149 106.681 56.1173 106.681C55.3198 106.681 54.7397 105.928 54.7397 105.039C54.7397 104.149 55.3198 103.397 56.1173 103.397C56.9149 103.397 57.4949 104.149 57.4949 105.039Z" fill="#956643"/>
<path d="M56.9872 105.039C56.9872 105.655 56.5521 106.134 56.1171 106.134C55.6096 106.134 55.2471 105.655 55.2471 105.039C55.2471 104.423 55.6821 103.944 56.1171 103.944C56.5521 103.944 56.9872 104.423 56.9872 105.039Z" fill="#8D5A34"/>
<path opacity="0.75" d="M66.7755 36.1307C67.2105 35.5148 67.718 34.6937 68.4431 34.5568C69.2406 34.4199 69.8931 34.4199 70.1106 35.0358C70.4731 35.857 70.4006 37.0887 69.6756 38.731C68.0805 42.6314 65.8329 41.0576 64.9629 40.5101C65.1804 40.3733 65.5429 37.773 66.7755 36.1307Z" fill="#F8D6BD"/>
<path d="M69.7479 36.1306C69.7479 36.1306 68.3704 34.762 67.7903 35.6516C67.2103 36.5412 65.4702 39.4152 66.3403 39.9627C67.1378 40.5101 68.2254 40.5101 67.9353 38.2519C67.5728 35.9938 68.6604 35.6516 69.7479 36.1306Z" fill="#EC996B"/>
<path d="M74.4607 124.131C74.4607 124.131 66.4128 121.188 63.1502 121.667C59.815 122.146 57.6399 121.394 56.4074 122.283C54.6673 123.515 49.592 126.457 49.8821 126.799C50.1721 127.142 50.8246 130.016 57.2774 125.636C58.8725 124.541 62.5701 125.157 62.5701 125.157C62.5701 125.157 60.6126 124.815 58.8 125.636C56.9874 126.457 50.7521 131.179 50.7521 131.521C50.7521 131.863 51.8396 134.121 58.4375 129.331C58.4375 129.331 60.6126 127.963 63.0777 127.963C63.0777 127.963 58.5825 129.673 58.3649 129.81C58.1474 129.947 53.7247 132.958 53.4347 133.437C53.1447 133.916 55.0298 136.037 61.0476 131.726C61.0476 131.726 63.3677 130.7 64.6727 130.495C64.6727 130.495 61.6276 131.589 61.0476 131.932C60.4675 132.274 57.5674 134.121 57.5674 134.258C57.5674 134.943 58.8725 136.106 62.7877 134.053C66.7028 132 67.0654 132.274 69.8205 132.274C72.5756 132.274 72.8656 131.658 74.4607 132.616C74.4607 132.547 78.5934 128.852 74.4607 124.131Z" fill="#FFC39A"/>
<path opacity="0.35" d="M53.4346 133.437C53.6521 133.027 56.6972 130.974 57.8573 130.152C58.0023 131.179 58.5823 132.137 59.6699 132.616C54.7396 135.695 53.217 133.916 53.4346 133.437Z" fill="#FFDFCC"/>
<path opacity="0.35" d="M60.975 132.068C61.0475 132.958 61.4101 133.779 62.1351 134.395C58.7274 135.969 57.5674 134.943 57.5674 134.327C57.6399 134.121 60.1775 132.547 60.975 132.068Z" fill="#FFDFCC"/>
<path opacity="0.35" d="M55.9726 127.415C56.0451 128.442 56.4801 129.468 57.4952 130.084C51.7674 133.916 50.7523 131.932 50.7523 131.589C50.6798 131.247 53.5075 129.058 55.9726 127.415Z" fill="#FFDFCC"/>
<path opacity="0.35" d="M54.6674 123.446C54.6674 124.61 55.1749 125.705 56.2625 126.32C50.7522 129.81 50.1722 127.142 49.8822 126.799C49.6646 126.526 52.5648 124.883 54.6674 123.446Z" fill="#FFDFCC"/>
<path d="M52.6372 130.152C52.6372 130.152 53.7247 130.563 53.5072 131.589C53.4347 131.726 51.6221 132.684 51.1871 131.453C51.1146 131.179 52.6372 130.152 52.6372 130.152Z" fill="#FFD7C0"/>
<path d="M55.2474 132.274C55.2474 132.274 56.2625 132.753 56.045 133.642C56.045 133.779 54.0874 134.737 53.7974 133.506C53.7974 133.3 55.2474 132.274 55.2474 132.274Z" fill="#FFD7C0"/>
<path d="M59.235 133.232C59.235 133.232 60.1775 133.642 59.96 134.464C59.96 134.6 58.0024 135.285 57.8574 134.258C57.8574 134.053 59.235 133.232 59.235 133.232Z" fill="#FFD7C0"/>
<path d="M51.9847 125.431C51.9847 125.431 53.4348 125.499 53.1448 127.21C53.1448 127.347 50.9697 128.168 50.3171 126.868C50.2446 126.663 51.9847 125.431 51.9847 125.431Z" fill="#FFD7C0"/>
<path opacity="0.75" d="M73.8805 124.541C73.8805 124.541 67.7902 122.557 67.2827 122.694C69.7478 124.473 71.2704 128.921 70.4729 131.589C72.2854 131.521 72.648 131.179 73.8805 131.932C73.8805 131.932 77.4332 128.715 73.8805 124.541Z" fill="#FFDFCC"/>
<path d="M66.7754 120.914C66.7754 120.914 75.4758 125.294 73.5907 135.764C73.5907 135.764 107.232 117.288 106 110.924C104.767 104.491 91.2815 69.6609 82.0736 64.255C82.0736 64.255 72.9382 67.2659 78.7385 90.395C78.7385 90.395 88.8164 107.571 89.6865 109.487C90.049 110.171 66.7754 120.914 66.7754 120.914Z" fill="#9B673C"/>
<path opacity="0.25" d="M83.6689 91.4899C81.7838 87.4525 80.4788 83.2099 78.6662 79.1726C78.5937 79.1042 78.5212 78.9673 78.4487 78.8989C77.7961 78.0093 77.2886 77.1197 76.7811 76.2986C76.7086 79.8569 77.2161 84.4417 78.7387 90.3266C78.7387 90.3266 88.8167 107.502 89.6867 109.418C90.0492 110.171 66.7031 120.846 66.7031 120.846C66.7031 120.846 69.4583 122.215 71.5609 125.294C74.5335 122.009 86.6416 113.114 93.6744 109.624C88.3091 104.149 86.8591 98.3328 83.6689 91.4899Z" fill="#9B6E4D"/>
<path d="M13.2679 103.191C13.8479 102.781 14.5004 102.575 15.2254 102.439C16.3855 102.302 18.0531 102.028 18.4156 101.823C18.9231 101.481 24.7234 102.712 24.7234 100.112C24.7234 99.7698 24.5059 99.4961 24.1434 99.3592C23.2733 99.0855 21.0257 98.5381 16.6755 98.8802C10.5852 99.3592 11.3103 99.5645 10.9477 99.7698C10.5127 99.9067 7.03256 102.439 7.39508 102.986C7.61259 103.533 7.8301 106.818 13.2679 103.191Z" fill="#FFC39A"/>
<path opacity="0.32" d="M20.3729 98.8128C19.3578 98.7443 18.1253 98.8128 16.6752 98.8812C10.5849 99.3602 11.31 99.5655 10.9474 99.7708C10.5849 99.9076 7.97481 101.824 7.46729 102.645C7.53979 102.782 7.7573 103.398 7.8298 103.534C8.33733 102.645 10.9474 100.797 11.31 100.66C11.745 100.524 10.8024 99.7708 16.8927 99.2918C18.3428 99.1549 19.5028 99.1549 20.5179 99.2233C20.3729 99.0865 20.3729 98.9496 20.3729 98.8128Z" fill="#ECAE8B"/>
<path opacity="0.75" d="M11.6 99.4276C11.02 99.5645 11.0925 99.7013 10.875 99.7698C10.44 99.9066 6.9598 102.438 7.32232 102.986C7.61233 103.465 7.82984 106.818 13.2676 103.123C13.3401 103.054 13.4126 103.054 13.4851 102.986C12.4701 102.028 11.89 100.796 11.6 99.4276Z" fill="#FFDFCC"/>
<path d="M22.2581 99.3593C22.2581 99.3593 21.243 100.044 22.0406 101.207C22.1131 101.344 24.2157 101.481 24.2882 100.18C24.3607 99.4961 22.2581 99.3593 22.2581 99.3593Z" fill="#FFD7C0"/>
<path d="M15.7332 105.04C15.7332 105.04 18.3433 104.218 18.9958 104.15C19.6484 104.082 25.8837 104.561 25.3761 102.234C25.3036 102.029 25.1586 101.823 24.9411 101.755C23.9261 101.481 20.9534 100.797 17.0382 101.481C12.253 102.371 9.71539 103.739 9.64289 104.629C9.57039 105.45 9.57039 108.735 15.7332 105.04Z" fill="#FFC39A"/>
<path opacity="0.32" d="M20.8083 101.138C19.6483 101.138 18.4157 101.207 16.9657 101.412C12.1804 102.302 9.64282 103.67 9.57031 104.56C9.57031 104.697 9.57031 104.834 9.57031 104.97C9.64282 105.039 9.71532 105.107 9.71532 105.244C9.71532 105.176 9.71532 105.039 9.71532 104.97C9.78782 104.081 12.3254 102.712 17.1107 101.823C18.4882 101.549 19.7933 101.481 20.9534 101.549C20.9534 101.412 20.8808 101.275 20.8083 101.138Z" fill="#ECAE8B"/>
<path opacity="0.75" d="M13.4132 102.37C10.9481 103.123 9.64307 104.012 9.64307 104.628C9.57056 105.449 9.64307 108.529 15.1533 105.449C14.2833 104.56 13.7033 103.465 13.4132 102.37Z" fill="#FFDFCC"/>
<path d="M23.4187 101.754C23.2737 101.754 23.1287 101.754 22.9837 101.891C22.7661 102.096 22.4761 102.644 22.9111 103.397C22.9837 103.533 24.9412 103.67 24.9412 102.439C25.0138 102.028 23.9262 101.823 23.4187 101.754Z" fill="#FFD7C0"/>
<path d="M17.3282 107.571C17.6182 107.434 17.8358 107.297 18.1258 107.229C18.9958 107.023 20.8084 106.613 21.0984 106.613C21.4609 106.544 24.5061 106.681 25.0861 105.107C25.2311 104.765 25.0136 104.355 24.5786 104.286C23.8535 104.149 21.9684 103.739 18.5608 104.218C18.5608 104.218 15.5156 104.902 14.7906 105.244C14.0656 105.655 11.528 106.75 11.673 107.365C11.963 107.981 12.1805 110.65 17.3282 107.571Z" fill="#FFC39A"/>
<path opacity="0.75" d="M14.8634 105.244C14.1383 105.655 11.6007 106.75 11.7457 107.365C11.8907 107.913 12.1082 110.308 16.4584 108.118C15.6609 107.297 15.1534 106.271 14.8634 105.244Z" fill="#FFDFCC"/>
<path opacity="0.32" d="M21.8962 104.013C21.0262 104.013 19.9386 104.013 18.6335 104.218C18.6335 104.218 15.5884 104.902 14.8634 105.245C14.1383 105.655 11.6007 106.75 11.7457 107.366C11.7457 107.434 11.7457 107.503 11.8182 107.571C11.8907 107.708 11.9632 107.776 12.0357 107.913V107.845C11.8907 107.229 14.4283 106.134 15.1534 105.724C15.8784 105.313 18.9236 104.697 18.9236 104.697C20.2286 104.56 21.2437 104.492 22.1137 104.492C21.9687 104.355 21.8962 104.15 21.8962 104.013Z" fill="#ECAE8B"/>
<path d="M22.9112 104.491C22.9112 104.491 22.4037 105.313 23.0562 105.928C23.1287 105.997 25.1588 105.586 24.7238 104.697C24.5788 104.423 22.9112 104.491 22.9112 104.491Z" fill="#FFD7C0"/>
<path d="M10.6576 100.454C11.0927 100.112 11.7452 99.6329 12.3252 99.4961C13.4128 99.2223 15.4429 98.7433 16.0954 98.5381C16.8929 98.3328 23.4907 99.7698 23.0557 97.101C22.9832 96.6905 22.6932 96.3483 22.2582 96.2799C20.6631 95.9377 15.9504 95.185 10.4401 96.3483C10.0051 96.4168 9.64259 96.622 9.35258 96.8958C8.19253 97.7853 5.5824 99.9066 5.79991 100.933C6.16243 102.165 6.88746 103.465 7.90251 102.575C8.62755 101.96 9.57009 101.275 10.6576 100.454Z" fill="#FFC39A"/>
<path opacity="0.32" d="M19.0682 95.8697C16.8206 95.6645 13.7754 95.6645 10.4403 96.4172C10.0053 96.4856 9.64274 96.6909 9.35272 96.9646C8.33767 97.7173 6.16257 99.4965 5.87256 100.591C6.01757 100.728 6.16257 100.865 6.30758 101.002C6.7426 99.9071 8.77269 98.2648 9.78774 97.512C10.1503 97.2383 10.5128 97.1015 10.8753 96.9646C14.0654 96.2803 16.9656 96.2803 19.2132 96.4172C19.1407 96.2119 19.0682 96.0066 19.0682 95.8697Z" fill="#ECAE8B"/>
<path opacity="0.75" d="M10.1501 96.4852C9.86011 96.5537 9.57009 96.6905 9.35258 96.8958C8.19253 97.7854 5.5824 99.9067 5.79991 100.933C6.16243 102.165 6.88746 103.465 7.90251 102.575C8.62755 101.96 9.93261 101.002 10.8752 100.317C11.0927 100.18 11.3827 99.9751 11.6727 99.8383C10.8752 98.8118 10.3676 97.6485 10.1501 96.4852Z" fill="#FFDFCC"/>
<path d="M20.7356 96.2114C20.7356 96.2114 19.3581 96.7589 20.2281 98.2643C20.3006 98.4012 22.8382 98.538 22.8382 97.1694C22.7657 96.4167 20.7356 96.2114 20.7356 96.2114Z" fill="#FFD7C0"/>
<path opacity="0.75" d="M52.4922 26.3453C55.8998 26.0715 60.3951 25.7978 63.6577 26.7558C65.1803 27.2348 66.4128 27.8507 67.5004 28.6034C68.2979 25.2504 68.4429 21.4184 65.9053 19.297C63.6577 17.4495 60.6126 16.423 57.6399 16.0124C52.2022 15.3282 45.7494 17.9969 43.3568 22.5817C42.5592 24.0871 41.8342 25.7294 41.3267 27.3717C44.8793 27.4401 48.6495 26.619 52.4922 26.3453Z" fill="#FFD6BD"/>
<path opacity="0.5" d="M64.0929 24.3608C64.963 24.9083 65.1805 25.9347 65.253 26.9611C68.9507 27.3717 72.7933 28.1929 76.056 29.6983C76.491 24.2924 76.056 18.6812 73.3734 15.465C67.7181 8.82739 43.357 12.7279 45.0245 21.8289C45.0245 21.8289 46.9821 23.1291 49.8098 24.3608C52.1299 25.2504 60.7578 22.1711 64.0929 24.3608Z" fill="#4D4F5C"/>
<path d="M40.7466 16.5606C40.7466 16.5606 33.6413 16.2869 34.2938 20.94C35.0188 26.2091 52.4197 23.5404 60.8301 22.9245C69.2405 22.3086 80.0435 32.094 82.0736 24.0878C82.0736 24.0878 82.1461 22.0349 79.0284 21.1453C79.0284 21.1453 83.5961 3.21687 64.3827 0.41127C46.8369 -2.25747 43.7193 10.4704 40.7466 16.5606Z" fill="#FFD11A"/>
<path opacity="0.65" d="M39.7316 17.9284C42.1243 20.3919 46.692 20.5972 49.0846 20.5972C52.7823 20.5287 56.4799 20.0497 60.2501 20.0497C62.3527 20.0497 64.5278 19.6391 66.6304 19.776C69.3855 7.32188 61.1202 1.77912 61.1202 1.64226C46.982 0.821106 44.2994 11.7014 41.6167 17.1073C41.6167 17.1073 40.5292 17.0388 39.2241 17.3126C39.4416 17.4494 39.5141 17.7231 39.7316 17.9284Z" fill="#FFD11A"/>
<path d="M79.5357 21.2814C77.5782 22.4447 74.8955 22.5816 72.1404 21.6236C66.1226 19.5023 59.5248 20.4603 53.2895 20.8024C50.2444 20.9393 46.9817 21.3499 44.0091 20.8709C41.4715 20.4603 40.0939 19.4338 38.1363 17.9284C37.7738 17.6547 37.4838 17.381 37.2663 17.0388C35.5987 17.5863 34.0036 18.6811 34.2936 20.9393C35.0186 26.2083 52.4195 23.5396 60.8299 22.9237C69.2403 22.3079 80.0433 32.0933 82.0734 24.087C82.1459 24.0186 82.1459 22.2394 79.5357 21.2814Z" fill="#FEC30C"/>
<path d="M79.5357 21.2814C77.5782 22.4447 74.8955 22.5816 72.1404 21.6236C66.1226 19.5023 59.5248 20.4603 53.2895 20.8024C50.2444 20.9393 46.9817 21.3499 44.0091 20.8709C41.4715 20.4603 40.0939 19.4338 38.1363 17.9284C37.7738 17.6547 37.4838 17.381 37.2663 17.0388C35.5987 17.5863 34.0036 18.6811 34.2936 20.9393C35.0186 26.2083 52.4195 23.5396 60.8299 22.9237C69.2403 22.3079 80.0433 32.0933 82.0734 24.087C82.1459 24.0186 82.1459 22.2394 79.5357 21.2814Z" fill="#FFD11A"/>
<path d="M80.1886 21.9657C78.231 23.129 75.4759 23.2659 72.6483 22.3079C66.4855 20.1866 59.8152 21.0761 53.4349 21.3499C50.3897 21.4867 46.9821 21.8973 43.9369 21.4183C41.3268 21.0077 39.9492 19.9128 37.9916 18.4758C37.6291 18.2021 37.3391 17.9284 37.1216 17.5863C36.034 17.9284 34.9465 18.4758 34.439 19.5023C34.8015 18.1337 36.034 17.4494 37.2666 17.0388C37.4841 17.381 37.7741 17.6547 38.1366 17.9284C40.0942 19.4338 41.3993 20.4603 44.0094 20.8709C46.9821 21.3499 50.3172 20.9393 53.2899 20.8024C59.5976 20.4603 66.123 19.5707 72.1407 21.6236C74.8959 22.5816 77.651 22.4447 79.5361 21.2814C80.6236 21.692 81.2762 22.2394 81.6387 22.7869C81.2762 22.4447 80.8411 22.2394 80.1886 21.9657Z" fill="#FFEE47"/>
<path d="M51.9845 34.6937C51.9845 34.6937 51.912 31.0669 55.2471 31.1354C58.6548 31.2722 58.0023 34.6937 57.2772 35.5148C56.5522 36.4044 52.347 35.378 51.9845 34.6937Z" fill="#FFFEFF"/>
<path d="M57.3497 33.9408C57.3497 35.1041 56.3347 36.1306 55.1746 36.1306C53.9421 36.1306 52.9995 35.1726 52.9995 33.9408C52.9995 32.7775 54.0146 31.7511 55.1746 31.7511C56.3347 31.7511 57.3497 32.7091 57.3497 33.9408Z" fill="url(#paint14_linear)"/>
<path d="M51.7671 33.1197C51.7671 33.1197 52.6371 30.8616 54.8847 30.8616C58.6549 30.8616 58.0749 34.0093 58.0749 34.0093C58.0749 34.0093 57.2773 32.2986 55.2473 32.1617C53.2897 32.0249 51.9846 33.0513 51.7671 33.1197Z" fill="#733F27"/>
<path d="M56.4799 33.5304C56.4799 33.7357 56.3349 33.8725 56.1174 33.8725C55.8999 33.8725 55.7549 33.7357 55.7549 33.5304C55.7549 33.3251 55.8999 33.1882 56.1174 33.1882C56.3349 33.1198 56.4799 33.3251 56.4799 33.5304Z" fill="white"/>
<path d="M42.8493 34.6952C42.4868 34.5584 42.1968 34.2847 42.1968 33.8741C42.1243 32.9161 42.2693 31.1369 44.0819 30.9316C46.692 30.6579 47.8521 33.1214 46.4745 34.8321C46.0395 35.3111 43.8644 34.969 42.8493 34.6952Z" fill="#733F27"/>
<path d="M42.8493 34.6952C42.4868 34.5584 42.1968 34.2847 42.1968 33.8741C42.1243 32.9161 42.2693 31.1369 44.0819 30.9316C46.692 30.6579 47.8521 33.1214 46.4745 34.8321C46.0395 35.3111 43.8644 34.969 42.8493 34.6952Z" fill="#FFFEFF"/>
<path d="M46.6921 33.3935C46.6921 34.4199 45.822 35.2411 44.807 35.2411C43.7919 35.2411 42.9219 34.4199 42.9219 33.3935C42.9219 32.367 43.7919 31.5459 44.807 31.5459C45.822 31.5459 46.6921 32.367 46.6921 33.3935Z" fill="url(#paint15_linear)"/>
<path d="M44.3008 31.7511C45.8234 31.6143 46.6935 32.0933 47.056 33.0513C46.9835 31.7511 45.8234 30.6563 44.0833 30.8615C42.7058 30.9984 42.2707 32.0248 42.1982 32.9144C42.4158 32.2301 43.2133 31.888 44.3008 31.7511Z" fill="#733F27"/>
<path d="M46.0395 32.8459C46.0395 33.0512 45.8945 33.1881 45.677 33.1881C45.4595 33.1881 45.3145 33.0512 45.3145 32.8459C45.3145 32.6406 45.4595 32.5038 45.677 32.5038C45.8945 32.5038 46.0395 32.7091 46.0395 32.8459Z" fill="white"/>
<path d="M49.5922 30.1089C49.5922 30.1089 47.7796 32.7776 45.7496 35.2411C43.937 37.4992 41.1818 39.9627 41.4719 40.5101C42.0519 41.605 48.7222 42.7683 47.9972 39.2784C47.1271 35.0358 50.6073 35.9938 49.5922 30.1089Z" fill="#FFC39A"/>
<path d="M45.4597 35.2411C43.6471 37.4992 41.327 39.8258 41.617 40.3733C41.6895 40.5101 42.7771 40.4417 42.7046 39.9627C42.5596 39.4153 44.4446 37.4308 46.3297 35.1727C47.0548 34.2146 49.0124 31.2038 49.3024 30.7247C49.3024 30.6563 49.3024 30.6563 49.3024 30.5879C48.6498 31.4775 46.9823 33.3935 45.4597 35.2411Z" fill="url(#paint16_linear)"/>
<path opacity="0.65" d="M46.9096 39.1415C46.3296 39.0731 45.8946 38.5256 46.1846 38.0466C46.8371 36.6096 50.0273 31.4774 50.1723 31.7511V31.8196C50.4623 32.4354 49.3022 35.6516 48.7222 38.1835C48.5047 39.0731 50.6073 40.7154 47.6347 41.3997C48.8672 40.9207 48.7947 39.8942 48.3597 39.6205C48.0697 39.3468 47.5622 39.2099 46.9096 39.1415Z" fill="#F5AF87"/>
<path d="M43.0671 40.7155C43.7196 40.5786 44.3721 40.5102 44.9522 40.7839C45.6047 41.0576 46.3297 41.3998 46.3297 41.3998C44.1546 41.6735 42.7046 40.9892 42.2695 40.7839C42.5595 40.7839 42.8496 40.7839 43.0671 40.7155Z" fill="#F5AF87"/>
</g>
<defs>
<linearGradient id="paint0_linear" x1="64.6415" y1="262.259" x2="61.4608" y2="121.39" gradientUnits="userSpaceOnUse">
<stop stop-color="#337A9B"/>
<stop offset="0.914" stop-color="#045B7E"/>
</linearGradient>
<linearGradient id="paint1_linear" x1="59.5244" y1="264.019" x2="56.3055" y2="121.465" gradientUnits="userSpaceOnUse">
<stop stop-color="#337A8E"/>
<stop offset="0.914" stop-color="#045B74"/>
</linearGradient>
<linearGradient id="paint2_linear" x1="1.06486" y1="81.3286" x2="9.35552" y2="88.7685" gradientUnits="userSpaceOnUse">
<stop offset="0.0860215" stop-color="#F8ECD1"/>
<stop offset="0.2616" stop-color="#F7EACB"/>
<stop offset="0.4917" stop-color="#F5E3BB"/>
<stop offset="0.7509" stop-color="#F1D8A0"/>
<stop offset="0.8384" stop-color="#EFD495"/>
</linearGradient>
<linearGradient id="paint3_linear" x1="9.55887" y1="86.9309" x2="11.5739" y2="88.9855" gradientUnits="userSpaceOnUse">
<stop offset="0.2589" stop-color="#F5E5C2"/>
<stop offset="0.8441" stop-color="#F2DDAE"/>
</linearGradient>
<linearGradient id="paint4_linear" x1="5.37078" y1="82.6041" x2="8.99548" y2="86.1488" gradientUnits="userSpaceOnUse">
<stop offset="0.0860215" stop-color="#F8ECD1"/>
<stop offset="1" stop-color="#EFD495"/>
</linearGradient>
<linearGradient id="paint5_linear" x1="7.67389" y1="83.3969" x2="9.98957" y2="85.6616" gradientUnits="userSpaceOnUse">
<stop offset="0.0860215" stop-color="#F8ECD1"/>
<stop offset="1" stop-color="#EFD495"/>
</linearGradient>
<linearGradient id="paint6_linear" x1="8.73736" y1="85.4161" x2="9.84851" y2="86.7093" gradientUnits="userSpaceOnUse">
<stop stop-color="#F5E5C2"/>
<stop offset="0.8441" stop-color="#F2DDAE"/>
</linearGradient>
<linearGradient id="paint7_linear" x1="7.19137" y1="83.9856" x2="8.66517" y2="85.4268" gradientUnits="userSpaceOnUse">
<stop offset="0.0860215" stop-color="#F8ECD1"/>
<stop offset="1" stop-color="#EFD495"/>
</linearGradient>
<linearGradient id="paint8_linear" x1="6.11262" y1="62.3679" x2="12.5144" y2="71.3143" gradientUnits="userSpaceOnUse">
<stop offset="0.0860215" stop-color="#F8ECD1"/>
<stop offset="0.2616" stop-color="#F7EACB"/>
<stop offset="0.4917" stop-color="#F5E3BB"/>
<stop offset="0.7509" stop-color="#F1D8A0"/>
<stop offset="0.8384" stop-color="#EFD495"/>
</linearGradient>
<linearGradient id="paint9_linear" x1="13.111" y1="69.5805" x2="14.6184" y2="71.9907" gradientUnits="userSpaceOnUse">
<stop offset="0.2589" stop-color="#F5E5C2"/>
<stop offset="0.8441" stop-color="#F2DDAE"/>
</linearGradient>
<linearGradient id="paint10_linear" x1="10.0213" y1="64.4973" x2="12.7625" y2="68.688" gradientUnits="userSpaceOnUse">
<stop offset="0.0860215" stop-color="#F8ECD1"/>
<stop offset="1" stop-color="#EFD495"/>
</linearGradient>
<linearGradient id="paint11_linear" x1="12.0863" y1="65.7439" x2="13.8376" y2="68.4213" gradientUnits="userSpaceOnUse">
<stop offset="0.0860215" stop-color="#F8ECD1"/>
<stop offset="1" stop-color="#EFD495"/>
</linearGradient>
<linearGradient id="paint12_linear" x1="12.6585" y1="67.9334" x2="13.4583" y2="69.4164" gradientUnits="userSpaceOnUse">
<stop stop-color="#F5E5C2"/>
<stop offset="0.8441" stop-color="#F2DDAE"/>
</linearGradient>
<linearGradient id="paint13_linear" x1="11.4796" y1="66.2196" x2="12.5942" y2="67.9235" gradientUnits="userSpaceOnUse">
<stop offset="0.0860215" stop-color="#F8ECD1"/>
<stop offset="1" stop-color="#EFD495"/>
</linearGradient>
<linearGradient id="paint14_linear" x1="55.1432" y1="35.914" x2="55.1432" y2="31.9982" gradientUnits="userSpaceOnUse">
<stop offset="0.0591398" stop-color="#733F27"/>
<stop offset="1" stop-color="#4D1E13"/>
</linearGradient>
<linearGradient id="paint15_linear" x1="44.8112" y1="35.4932" x2="44.8112" y2="31.492" gradientUnits="userSpaceOnUse">
<stop offset="0.0591398" stop-color="#733F27"/>
<stop offset="1" stop-color="#4D1E13"/>
</linearGradient>
<linearGradient id="paint16_linear" x1="44.1606" y1="34.5432" x2="46.102" y2="36.1255" gradientUnits="userSpaceOnUse">
<stop offset="0.1183" stop-color="#FFD7BB"/>
<stop offset="0.914" stop-color="#FFC39A"/>
</linearGradient>
<clipPath id="clip0">
<rect width="106" height="264" fill="white"/>
</clipPath>
</defs>
</svg>
